<svg width="87" height="87" viewBox="0 0 87 87" fill="none" xmlns="http://www.w3.org/2000/svg">
<g clip-path="url(#clip0)">
<path d="M5.1 0H59.15C60.5075 0.0115006 61.8067 0.553428 62.77 1.51C63.7147 2.46651 64.2461 3.75564 64.25 5.1V36.25C64.2513 36.3541 64.2318 36.4574 64.1926 36.5539C64.1534 36.6504 64.0952 36.738 64.0216 36.8116C63.948 36.8852 63.8604 36.9434 63.7639 36.9826C63.6674 37.0218 63.5641 37.0413 63.46 37.04L62.21 36.94H61C54.6648 36.9479 48.5919 39.4709 44.116 43.9543C39.6401 48.4377 37.1273 54.5148 37.13 60.85C37.1356 63.6277 37.6158 66.3841 38.55 69C39.5278 71.6235 40.9446 74.0616 42.74 76.21C42.8076 76.2875 42.8591 76.3778 42.8912 76.4755C42.9234 76.5733 42.9356 76.6765 42.9272 76.779C42.9188 76.8815 42.89 76.9814 42.8424 77.0726C42.7947 77.1638 42.7293 77.2445 42.65 77.31C42.5114 77.4376 42.3283 77.5058 42.14 77.5H5.1C3.74588 77.5008 2.44573 76.9692 1.48 76.02V75.96C0.540415 75.0287 0.00822762 73.7629 0 72.44L0 5.1C0.0038775 3.75564 0.535326 2.46651 1.48 1.51C2.44509 0.556114 3.74314 0.0146634 5.1 0V0ZM59.15 1.61H5.1C4.63898 1.60021 4.18074 1.68375 3.75283 1.8556C3.32492 2.02745 2.93619 2.28406 2.61 2.61C1.96889 3.26433 1.60987 4.14394 1.61 5.06V72.44C1.60507 73.3599 1.96461 74.2444 2.61 74.9C2.93192 75.2386 3.31768 75.5101 3.74504 75.6989C4.1724 75.8877 4.6329 75.99 5.1 76H40.5C39.0676 74.0383 37.9133 71.8879 37.07 69.61C35.6566 65.7578 35.1941 61.6212 35.7218 57.5519C36.2495 53.4827 37.7518 49.6009 40.101 46.2366C42.4503 42.8723 45.577 40.1248 49.2155 38.2278C52.8539 36.3307 56.8966 35.34 61 35.34H62.23H62.64V5.1C62.6401 4.18394 62.2811 3.30433 61.64 2.65C61.3145 2.32312 60.9259 2.06589 60.4978 1.89397C60.0698 1.72206 59.6112 1.63905 59.15 1.65V1.61Z" fill="#F2F2F2"/>
<path d="M11.12 16.0599C11.0094 16.0724 10.8975 16.0614 10.7915 16.0276C10.6855 15.9939 10.5879 15.9381 10.5049 15.864C10.422 15.7899 10.3556 15.6991 10.3101 15.5976C10.2647 15.4961 10.2412 15.3861 10.2412 15.2749C10.2412 15.1636 10.2647 15.0537 10.3101 14.9521C10.3556 14.8506 10.422 14.7598 10.5049 14.6857C10.5879 14.6116 10.6855 14.5559 10.7915 14.5221C10.8975 14.4884 11.0094 14.4774 11.12 14.4899H53.1199C53.2305 14.4774 53.3424 14.4884 53.4484 14.5221C53.5544 14.5559 53.652 14.6116 53.735 14.6857C53.818 14.7598 53.8843 14.8506 53.9298 14.9521C53.9752 15.0537 53.9987 15.1636 53.9987 15.2749C53.9987 15.3861 53.9752 15.4961 53.9298 15.5976C53.8843 15.6991 53.818 15.7899 53.735 15.864C53.652 15.9381 53.5544 15.9939 53.4484 16.0276C53.3424 16.0614 53.2305 16.0724 53.1199 16.0599H11.12Z" fill="#F2F2F2"/>
<path d="M11.12 31.7501C10.922 31.728 10.7391 31.6337 10.6062 31.4852C10.4734 31.3367 10.3999 31.1444 10.3999 30.9451C10.3999 30.7459 10.4734 30.5536 10.6062 30.4051C10.7391 30.2566 10.922 30.1622 11.12 30.1401H48.35C48.5481 30.1622 48.731 30.2566 48.8639 30.4051C48.9967 30.5536 49.0702 30.7459 49.0702 30.9451C49.0702 31.1444 48.9967 31.3367 48.8639 31.4852C48.731 31.6337 48.5481 31.728 48.35 31.7501H11.12Z" fill="#F2F2F2"/>
<path d="M11.12 47.4002C11.0094 47.4127 10.8975 47.4017 10.7915 47.368C10.6855 47.3342 10.5879 47.2785 10.5049 47.2043C10.422 47.1302 10.3556 47.0395 10.3101 46.9379C10.2647 46.8364 10.2412 46.7264 10.2412 46.6152C10.2412 46.504 10.2647 46.394 10.3101 46.2925C10.3556 46.1909 10.422 46.1001 10.5049 46.026C10.5879 45.9519 10.6855 45.8962 10.7915 45.8624C10.8975 45.8287 11.0094 45.8177 11.12 45.8302H35.4C35.5105 45.8177 35.6224 45.8287 35.7284 45.8624C35.8344 45.8962 35.932 45.9519 36.015 46.026C36.0979 46.1001 36.1643 46.1909 36.2098 46.2925C36.2552 46.394 36.2787 46.504 36.2787 46.6152C36.2787 46.7264 36.2552 46.8364 36.2098 46.9379C36.1643 47.0395 36.0979 47.1302 36.015 47.2043C35.932 47.2785 35.8344 47.3342 35.7284 47.368C35.6224 47.4017 35.5105 47.4127 35.4 47.4002H11.12Z" fill="#F2F2F2"/>
<path d="M11.1201 63.0898C10.9106 63.0898 10.7096 63.0065 10.5615 62.8584C10.4133 62.7102 10.3301 62.5093 10.3301 62.2998C10.3301 62.0902 10.4133 61.8893 10.5615 61.7412C10.7096 61.593 10.9106 61.5098 11.1201 61.5098H24.9401C25.1496 61.5098 25.3505 61.593 25.4987 61.7412C25.6468 61.8893 25.7301 62.0902 25.7301 62.2998C25.7301 62.5093 25.6468 62.7102 25.4987 62.8584C25.3505 63.0065 25.1496 63.0898 24.9401 63.0898H11.1201Z" fill="#F2F2F2"/>
<path d="M61.0001 35.3398C66.8931 35.3375 72.6046 37.3788 77.1613 41.1157C81.718 44.8526 84.8378 50.054 85.9892 55.8335C87.1406 61.613 86.2523 67.6129 83.4756 72.8108C80.6989 78.0087 76.2057 82.0829 70.7617 84.3391C65.3176 86.5954 59.2597 86.894 53.6201 85.1842C47.9806 83.4744 43.1084 79.8619 39.8339 74.9623C36.5595 70.0627 35.0853 64.1793 35.6626 58.3146C36.2399 52.4499 38.833 46.9669 43.0001 42.7998C45.3623 40.4337 48.1682 38.5568 51.2569 37.2767C54.3456 35.9966 57.6566 35.3384 61.0001 35.3398ZM78.0001 43.9398C74.0893 40.0277 68.9431 37.5925 63.4382 37.0493C57.9333 36.506 52.4104 37.8883 47.8104 40.9606C43.2104 44.0329 39.8179 48.6051 38.2111 53.8982C36.6042 59.1913 36.8824 64.8778 38.9981 69.9888C41.1138 75.0998 44.9363 79.3191 49.8141 81.9278C54.692 84.5366 60.3235 85.3733 65.7491 84.2954C71.1747 83.2175 76.0587 80.2918 79.569 76.0166C83.0793 71.7415 84.9986 66.3815 85.0001 60.8498C84.9995 54.5083 82.4818 48.4263 78.0001 43.9398Z" fill="#F2F2F2"/>
<path d="M49.3899 65.29L53.7599 64.91L53.8299 65.64C53.9013 66.2596 54.0387 66.8697 54.2399 67.46C54.3988 67.9689 54.6205 68.456 54.8999 68.91C55.1839 69.3128 55.5202 69.6759 55.8999 69.99C56.3816 70.3602 56.9093 70.6661 57.4699 70.9C58.1083 71.1844 58.7804 71.3861 59.4699 71.5C60.1967 71.6519 60.9375 71.7256 61.6799 71.72C62.333 71.7152 62.9848 71.6617 63.6299 71.56C64.1996 71.4681 64.759 71.3208 65.2999 71.12C65.7539 70.9379 66.1865 70.7066 66.5899 70.43C66.9187 70.1858 67.2145 69.9001 67.4699 69.58C67.688 69.2735 67.8598 68.9365 67.9799 68.58C68.0938 68.2351 68.1479 67.8732 68.1399 67.51C68.1418 67.1724 68.0981 66.836 68.0099 66.51C67.8868 66.194 67.7184 65.8976 67.5099 65.63C67.2644 65.3374 66.9781 65.0815 66.6599 64.87C66.2111 64.5927 65.7353 64.3615 65.2399 64.18C64.6312 63.955 64.0102 63.7647 63.3799 63.61C62.5299 63.36 61.4599 63.11 60.1399 62.79C58.8199 62.47 57.6199 62.13 56.6699 61.79C55.8658 61.5623 55.0856 61.2575 54.3399 60.88C53.6492 60.5035 52.9962 60.0614 52.3899 59.56C51.8324 59.0724 51.3445 58.5104 50.9399 57.89C50.5617 57.2964 50.2751 56.6491 50.0899 55.97C49.8964 55.2834 49.7988 54.5734 49.7999 53.86C49.804 53.0575 49.9218 52.2595 50.1499 51.49C50.3954 50.7293 50.7311 50.0008 51.1499 49.32C51.6166 48.6155 52.1902 47.988 52.8499 47.46C53.5521 46.9081 54.3258 46.454 55.1499 46.11C56.0155 45.7601 56.913 45.4956 57.8299 45.32C58.8209 45.1509 59.8246 45.0673 60.8299 45.07C61.8963 45.0649 62.9609 45.1587 64.0099 45.35C64.9734 45.5075 65.9138 45.7829 66.8099 46.17C67.6618 46.5188 68.4597 46.9868 69.1799 47.56C69.8735 48.1116 70.4862 48.7579 70.9999 49.48C71.4669 50.2159 71.8366 51.0092 72.0999 51.84C72.366 52.6891 72.514 53.5707 72.5399 54.46V55.18L67.3699 55.59L67.3099 54.87C67.2415 54.1134 67.0383 53.3751 66.7099 52.69C66.4506 52.1062 66.0482 51.5972 65.5399 51.21C65.0103 50.7723 64.3879 50.4611 63.7199 50.3C62.8307 50.079 61.9159 49.9781 60.9999 50C58.8499 50 57.3099 50.38 56.3999 51.14C55.98 51.4426 55.6374 51.8401 55.3999 52.3C55.163 52.6871 55.0256 53.1269 54.9999 53.58C54.9956 53.9677 55.0705 54.3522 55.2199 54.71C55.3651 55.0554 55.5956 55.3582 55.8899 55.59C56.4125 55.997 57.0108 56.2962 57.6499 56.47C58.8536 56.8829 60.0829 57.217 61.3299 57.47C62.9099 57.82 64.2299 58.16 65.3299 58.47C66.2421 58.7122 67.1347 59.0231 67.9999 59.4C68.8381 59.7821 69.6298 60.2585 70.3599 60.82C70.9937 61.346 71.5463 61.9627 71.9999 62.65C72.4339 63.3011 72.7708 64.0119 72.9999 64.76C73.2154 65.5483 73.3197 66.3629 73.3099 67.18C73.3169 68.0201 73.2127 68.8573 72.9999 69.67C72.7301 70.4794 72.3606 71.252 71.8999 71.97C71.4209 72.7272 70.8233 73.4025 70.1299 73.97C69.4092 74.5614 68.6161 75.0587 67.7699 75.45C66.8718 75.8549 65.9332 76.1633 64.9699 76.37C63.9409 76.5601 62.8964 76.6538 61.8499 76.65C60.5944 76.6601 59.3401 76.5664 58.0999 76.37C57.0092 76.1816 55.9428 75.8731 54.9199 75.45C54.005 75.0528 53.1474 74.5349 52.3699 73.91C51.5874 73.291 50.9118 72.5478 50.3699 71.71C49.8444 70.8677 49.4404 69.9553 49.1699 69C48.8782 68.0256 48.7168 67.0168 48.6899 66V65.28L49.3899 65.29ZM52.3899 66.52L50.2199 66.74C50.2869 67.3676 50.4006 67.9893 50.5599 68.6C50.8094 69.392 51.1732 70.1433 51.6399 70.83C52.0789 71.5433 52.6409 72.1731 53.2999 72.69C53.9606 73.2415 54.6942 73.6992 55.4799 74.05C56.3888 74.4219 57.3389 74.6837 58.3099 74.83C59.4656 75.0314 60.6369 75.1285 61.8099 75.12C62.7486 75.1153 63.6853 75.0316 64.6099 74.87C65.4684 74.6922 66.3038 74.4171 67.0999 74.05C67.8191 73.7198 68.4916 73.2961 69.0999 72.79C69.6624 72.3099 70.1599 71.7586 70.5799 71.15C70.9598 70.5492 71.2654 69.9045 71.4899 69.23C71.6761 68.5797 71.7704 67.9065 71.7699 67.23C71.7807 66.5529 71.6863 65.8782 71.4899 65.23C71.3183 64.6126 71.0518 64.0256 70.6999 63.49C70.337 62.9331 69.8958 62.4313 69.3899 62C68.7814 61.5023 68.1087 61.0886 67.3899 60.77C66.6114 60.4375 65.8092 60.1634 64.9899 59.95C63.9899 59.63 62.6299 59.32 61.0899 58.95C59.7803 58.6981 58.4877 58.3641 57.2199 57.95C56.3976 57.6891 55.6287 57.2826 54.9499 56.75C54.5076 56.3677 54.1645 55.8839 53.9499 55.34C53.7059 54.7966 53.5863 54.2056 53.5999 53.61C53.5996 52.9159 53.7605 52.2313 54.0699 51.61C54.4234 50.9616 54.9068 50.3931 55.4899 49.94C57.1151 48.8551 59.0491 48.3286 60.9999 48.44C62.0589 48.4257 63.115 48.5535 64.1399 48.82C65.0029 49.0538 65.8115 49.4547 66.5199 50C67.1706 50.5487 67.6958 51.2307 68.0599 52C68.3725 52.6299 68.5851 53.3047 68.6899 54L70.9299 53.82C70.8744 53.3039 70.7672 52.7947 70.6099 52.3C70.3947 51.5967 70.0888 50.9243 69.6999 50.3C69.2981 49.6859 68.7981 49.142 68.2199 48.69C67.6167 48.1953 66.9425 47.7942 66.2199 47.5C65.407 47.1715 64.5626 46.9269 63.6999 46.77C62.742 46.6059 61.7719 46.5223 60.7999 46.52C59.9025 46.5283 59.0068 46.6018 58.1199 46.74C57.299 46.8954 56.4976 47.1402 55.7299 47.47C54.3846 47.9793 53.2289 48.8906 52.4199 50.08C52.06 50.6408 51.7743 51.2458 51.5699 51.88C51.3812 52.5024 51.2868 53.1496 51.2899 53.8C51.2913 54.3757 51.3755 54.9483 51.5399 55.5C51.692 56.0306 51.9211 56.536 52.2199 57C52.5377 57.4962 52.9174 57.9499 53.3499 58.35C53.8526 58.7972 54.4064 59.1833 54.9999 59.5C55.6809 59.8359 56.3863 60.1201 57.1099 60.35C58.0299 60.63 59.1099 60.95 60.4499 61.26C61.7899 61.57 62.9099 61.86 63.7599 62.11C64.4391 62.2656 65.1073 62.4661 65.7599 62.71C66.3569 62.9282 66.9272 63.2134 67.4599 63.56C67.9356 63.8458 68.353 64.2191 68.6899 64.66C69.0075 65.0621 69.2543 65.5152 69.4199 66C69.753 66.9928 69.753 68.0672 69.4199 69.06C69.2532 69.5597 69.0067 70.0291 68.6899 70.45C68.358 70.9285 67.9411 71.342 67.4599 71.67C66.9603 72.0303 66.4114 72.3166 65.8299 72.52C65.1925 72.7946 64.519 72.9764 63.8299 73.06C63.1035 73.1872 62.3674 73.2507 61.6299 73.25C60.8074 73.2416 59.9873 73.1579 59.1799 73C58.3982 72.8431 57.6367 72.5982 56.9099 72.27C56.2255 71.9976 55.5826 71.6307 54.9999 71.18C54.4634 70.7758 53.9971 70.2859 53.6199 69.73C53.2635 69.1952 52.9841 68.6128 52.7899 68C52.6416 67.5249 52.5247 67.0405 52.4399 66.55L52.3899 66.52Z" fill="#F2F2F2"/>
<path d="M59.05 40H63.81V46.8L62.93 46.68L61.93 46.59C61.5736 46.5695 61.2164 46.5695 60.86 46.59H60.01L59.16 46.65L58.31 46.74V40H59.05ZM62.24 41.58H59.84V45H60.84C61.22 45 61.59 45 62 45H62.26L62.24 41.58ZM63.81 49.32V59.62L61 59C60.18 58.84 59.46 58.66 58.79 58.47L58.23 58.31V48.63L58.92 48.54L59.87 48.44C60.21 48.44 60.56 48.44 60.87 48.44C61.18 48.44 61.65 48.44 62 48.5C62.3598 48.5119 62.7178 48.5554 63.07 48.63L63.73 48.72L63.81 49.32ZM62.24 57.64V50.05H62C61.66 50.05 61.34 49.99 61 49.99C60.66 49.99 60.33 49.99 60 49.99H59.84V57.1C60.31 57.23 60.84 57.35 61.39 57.48L62.24 57.64ZM63.81 62.64V73.1L63.09 73.2H62.39H61.67C61.2 73.2 60.67 73.2 60.25 73.14C59.83 73.08 59.34 73.01 58.87 72.92L58.27 72.76V60.66C60.09 61.13 61.95 61.58 63.81 62.08V62.64ZM62.24 71.64V63.28L59.84 62.68V71.53L60.41 71.62C60.79 71.62 61.23 71.69 61.67 71.69L62.24 71.64ZM63.81 75.83V81.63H58.27V74.83L59.15 74.93C59.56 74.99 60 75.02 60.44 75.06C60.88 75.1 61.35 75.06 61.86 75.06H62.42L63.81 74.96V75.83ZM62.24 80.05V76.65H61.86C61.35 76.65 60.86 76.65 60.35 76.65H59.84V80.11L62.24 80.05Z" fill="#F2F2F2"/>
</g>
<defs>
<clipPath id="clip0">
<rect width="86.52" height="86.33" fill="white"/>
</clipPath>
</defs>
</svg>
