<svg width="111" height="86" viewBox="0 0 111 86" fill="none" xmlns="http://www.w3.org/2000/svg">
<g clip-path="url(#clip0)">
<path d="M28.38 79.6947C40.3492 79.6947 50.0521 69.9918 50.0521 58.0226C50.0521 46.0535 40.3492 36.3506 28.38 36.3506C16.4109 36.3506 6.70801 46.0535 6.70801 58.0226C6.70801 69.9918 16.4109 79.6947 28.38 79.6947Z" stroke="#F90000" stroke-width="1.31585" stroke-miterlimit="10"/>
<path d="M54.4802 63.0489C57.2568 48.6303 47.8191 34.6909 33.4006 31.9144C18.982 29.1378 5.04265 38.5755 2.26608 52.994C-0.510495 67.4125 8.92719 81.3519 23.3457 84.1285C37.7643 86.9051 51.7037 77.4674 54.4802 63.0489Z" stroke="#F90000" stroke-width="1.61192" stroke-miterlimit="10"/>
<path d="M55.0852 44.5549L67.7305 32.0543L80.1324 19.8235L91.929 8.21113L104.002 4.80308C104.304 4.61612 104.653 4.51709 105.009 4.51709C105.364 4.51709 105.713 4.61612 106.015 4.80308C106.36 5.03371 106.622 5.36933 106.762 5.76033C106.902 6.15133 106.912 6.57694 106.792 6.97423C105.857 10.5358 104.927 14.0952 104.002 17.6523L91.5737 30.4687L79.3363 43.1338C73.9106 48.7393 68.4871 54.347 63.0658 59.9569L58.6446 64.5295" stroke="#F90000" stroke-width="1.61192" stroke-miterlimit="10"/>
<path d="M98.5806 16.5402L94.712 12.5137" stroke="#F90000" stroke-width="1.61192" stroke-miterlimit="10"/>
<path d="M91.5737 30.4688L97.1134 42.6206L102.495 54.4172C102.686 54.8449 102.883 55.2659 103.074 55.6936C103.64 56.8647 106.903 63.8453 103.693 71.0232C102.631 73.3663 101.042 75.4314 99.0477 77.0564L79.3099 43.1272" stroke="#F90000" stroke-width="1.61192" stroke-miterlimit="10"/>
<path d="M67.7304 32.0673L34.1763 13.2836C35.88 10.7821 38.2408 8.79913 40.9989 7.55304C47.4663 4.67791 53.539 7.23066 54.618 7.70436L56.4602 8.5794L68.5528 14.3165L80.1323 19.8168L82.0206 20.7115" stroke="#F90000" stroke-width="1.61192" stroke-miterlimit="10"/>
<path d="M51.8351 13.5995L62.9803 1.52002" stroke="#F90000" stroke-width="1.61192" stroke-miterlimit="10"/>
<path d="M75.5203 6.7832L68.5529 14.323" stroke="#F90000" stroke-width="1.61192" stroke-miterlimit="10"/>
<path d="M110.042 46.8774L97.1002 59.8188" stroke="#F90000" stroke-width="1.61192" stroke-miterlimit="10"/>
<path d="M97.1134 42.6271L104.469 35.2715" stroke="#F90000" stroke-width="1.61192" stroke-miterlimit="10"/>
<path d="M51.5258 31.5545L54.9338 28.1465" stroke="#F90000" stroke-width="1.61192" stroke-miterlimit="10"/>
<path d="M34.9592 24.587L39.1436 20.5605" stroke="#F90000" stroke-width="1.61192" stroke-miterlimit="10"/>
<path d="M82.0207 29.2646L61.1184 50.134" stroke="#F90000" stroke-width="1.61192" stroke-miterlimit="10"/>
<path d="M74.8756 65.0889L70.6385 69.3259" stroke="#F90000" stroke-width="1.61192" stroke-miterlimit="10"/>
<path d="M82.2508 57.7134L78.0138 61.957" stroke="#F90000" stroke-width="1.61192" stroke-miterlimit="10"/>
<path d="M79.2245 78.1553L75.5928 81.7936" stroke="#F90000" stroke-width="1.61192" stroke-miterlimit="10"/>
<path d="M87.4682 70.2534L83.8364 73.8917" stroke="#F90000" stroke-width="1.61192" stroke-miterlimit="10"/>
<path d="M63.0658 59.9565C64.0922 66.5797 65.1207 73.2115 66.1515 79.8522C66.1898 80.5683 65.9862 81.2765 65.5734 81.863C65.1607 82.4495 64.5628 82.8803 63.8758 83.086C63.1888 83.2917 62.4525 83.2605 61.7854 82.9974C61.1182 82.7343 60.5589 82.2545 60.1973 81.6352L53.2233 73.8124" stroke="#F90000" stroke-width="1.61192" stroke-miterlimit="10"/>
<path d="M44.1075 64.5398C47.7061 55.8518 43.5804 45.8915 34.8925 42.2928C26.2045 38.6941 16.2442 42.8198 12.6455 51.5078C9.04682 60.1958 13.1725 70.1561 21.8605 73.7548C30.5485 77.3534 40.5088 73.2277 44.1075 64.5398Z" stroke="#F90000" stroke-width="1.61192" stroke-miterlimit="10" stroke-dasharray="5.35 5.35"/>
<path d="M28.1498 57.891V46.7983" stroke="#F90000" stroke-width="1.61192" stroke-miterlimit="10"/>
<path d="M39.0582 65.6086L28.1498 57.8911" stroke="#F90000" stroke-width="1.61192" stroke-miterlimit="10"/>
</g>
<defs>
<clipPath id="clip0">
<rect width="109.623" height="84.4446" fill="white" transform="translate(0.984009 0.973633)"/>
</clipPath>
</defs>
</svg>
