<svg width="99" height="84" viewBox="0 0 99 84" fill="none" xmlns="http://www.w3.org/2000/svg">
<g clip-path="url(#clip0)">
<path d="M69.2559 10.0346L36.3755 18.136V64.8121L45.7848 62.4974C45.5996 61.6525 45.4145 60.7845 45.3103 59.9049C45.1776 58.7177 45.1196 57.5232 45.1367 56.3287C45.1506 49.6784 47.6204 43.2676 52.0719 38.3269C56.5235 33.3862 62.6431 30.2638 69.2559 29.5591V10.0346ZM35.3223 16.5505L69.8809 8.12493C69.965 8.1081 70.0515 8.1081 70.1355 8.12493C70.2514 8.12166 70.3667 8.14226 70.4743 8.18545C70.5818 8.22865 70.6793 8.29352 70.7608 8.37602C70.8422 8.45852 70.9057 8.5569 70.9475 8.66502C70.9893 8.77315 71.0084 8.88871 71.0035 9.00452V30.3693C71.0082 30.4787 70.9912 30.588 70.9536 30.6909C70.916 30.7938 70.8584 30.8882 70.7843 30.9689C70.7101 31.0495 70.6207 31.1147 70.5213 31.1607C70.4219 31.2068 70.3144 31.2328 70.205 31.2373C66.7797 31.4851 63.4414 32.4309 60.3951 34.0164C57.3489 35.6019 54.6591 37.7938 52.4911 40.4571C50.3231 43.1205 48.7228 46.1991 47.7884 49.5037C46.8541 52.8084 46.6055 56.2692 47.0579 59.6734C47.2063 60.7784 47.4267 61.8725 47.7176 62.9488C47.7698 63.1773 47.7298 63.4173 47.6064 63.6166C47.4829 63.8159 47.2858 63.9585 47.0579 64.0135L35.7969 66.7449C35.7047 66.7831 35.607 66.8065 35.5075 66.8143C35.2762 66.8143 35.0542 66.7233 34.8896 66.5608C34.725 66.3983 34.631 66.1776 34.6279 65.9463V17.3375C34.6396 17.1426 34.7133 16.9567 34.8382 16.8067C34.9632 16.6568 35.1328 16.5508 35.3223 16.5042V16.5505Z" fill="#F2F2F2"/>
<path d="M1.15771 8.12466L35.7163 16.5502C35.8999 16.6003 36.0624 16.7085 36.1793 16.8588C36.2961 17.0091 36.3611 17.1932 36.3644 17.3835V65.9923C36.366 66.1067 36.3446 66.2203 36.3015 66.3263C36.2584 66.4324 36.1945 66.5287 36.1136 66.6096C36.0327 66.6905 35.9364 66.7544 35.8304 66.7974C35.7244 66.8405 35.6108 66.8619 35.4964 66.8603C35.4076 66.8552 35.3209 66.8316 35.2418 66.7909L0.660053 58.3191C0.468125 58.283 0.295682 58.1788 0.174467 58.0257C0.0532519 57.8726 -0.00857698 57.6809 0.000361326 57.4858V8.96953C-0.00119513 8.85359 0.020493 8.73852 0.0641454 8.6311C0.107798 8.52368 0.172529 8.42609 0.254519 8.3441C0.336508 8.26211 0.434093 8.19738 0.541513 8.15373C0.648933 8.11008 0.76401 8.08839 0.87995 8.08994C0.975698 8.07353 1.07354 8.07353 1.16929 8.08994L1.15771 8.12466ZM34.6284 18.1358L1.74796 10.0343V56.7914L34.6284 64.8118V18.1358Z" fill="#F2F2F2"/>
<path d="M0.694586 8.09028L35.3226 0.775811C35.4396 0.740745 35.5644 0.740745 35.6814 0.775811L70.321 8.06714C70.5516 8.11976 70.7523 8.2608 70.88 8.45993C71.0077 8.65905 71.0522 8.90035 71.0038 9.1319C70.9618 9.29291 70.8756 9.43895 70.7549 9.55349C70.6343 9.66803 70.4839 9.7465 70.321 9.78002L35.7277 18.2634C35.5949 18.2982 35.4554 18.2982 35.3226 18.2634L0.659865 9.80317C0.432839 9.75078 0.23587 9.61047 0.11219 9.41301C-0.0114901 9.21556 -0.0517762 8.9771 0.000173653 8.74998C0.0384374 8.58402 0.124677 8.43298 0.248153 8.31568C0.371629 8.19838 0.526885 8.11999 0.694586 8.09028ZM35.5078 2.55813L4.84948 9.00459L35.5078 16.5158L66.2008 9.00459L35.5078 2.55813Z" fill="#F2F2F2"/>
<path d="M8.63382 51.977C8.63695 52.0924 8.61673 52.2072 8.57436 52.3146C8.532 52.4219 8.46836 52.5196 8.38729 52.6018C8.30621 52.6839 8.20937 52.7489 8.10257 52.7926C7.99577 52.8364 7.88122 52.8582 7.76581 52.8566C7.65384 52.8536 7.54357 52.8284 7.44143 52.7824C7.33929 52.7364 7.24732 52.6706 7.17085 52.5888C7.09439 52.5069 7.03496 52.4107 6.99603 52.3056C6.9571 52.2006 6.93944 52.0889 6.94409 51.977V16.7703C6.94253 16.6544 6.96422 16.5393 7.00787 16.4319C7.05152 16.3244 7.11625 16.2268 7.19824 16.1449C7.28023 16.0629 7.37782 15.9981 7.48524 15.9545C7.59266 15.9108 7.70773 15.8891 7.82367 15.8907C8.05494 15.8937 8.27571 15.9878 8.43817 16.1524C8.60063 16.317 8.69171 16.539 8.69169 16.7703L8.63382 51.977Z" fill="#F2F2F2"/>
<path d="M15.4975 46.3641C15.4724 46.5844 15.3672 46.7878 15.2017 46.9354C15.0363 47.0831 14.8223 47.1647 14.6006 47.1647C14.3788 47.1647 14.1648 47.0831 13.9994 46.9354C13.834 46.7878 13.7287 46.5844 13.7036 46.3641V22.3837C13.7287 22.1634 13.834 21.96 13.9994 21.8123C14.1648 21.6646 14.3788 21.583 14.6006 21.583C14.8223 21.583 15.0363 21.6646 15.2017 21.8123C15.3672 21.96 15.4724 22.1634 15.4975 22.3837V46.3641Z" fill="#F2F2F2"/>
<path d="M72.0336 29.3853C78.2613 29.3963 84.2927 31.5653 89.1011 35.523C93.9095 39.4808 97.1976 44.9827 98.4058 51.092C99.614 57.2014 98.6675 63.5407 95.7275 69.0308C92.7875 74.5209 88.0357 78.8223 82.281 81.203C76.5263 83.5837 70.1243 83.8964 64.165 82.0878C58.2057 80.2793 53.0573 76.4614 49.5962 71.284C46.1352 66.1066 44.5754 59.8897 45.1825 53.6917C45.7895 47.4936 48.5259 41.6975 52.9257 37.29C57.9916 32.2462 64.8502 29.4162 71.9988 29.42L72.0336 29.3853ZM89.7758 38.6441C85.6627 34.5403 80.2535 31.9903 74.4705 31.429C68.6875 30.8677 62.8888 32.3297 58.0633 35.5659C53.2378 38.8021 49.6843 43.612 48.0088 49.1753C46.3332 54.7387 46.6394 60.711 48.8751 66.0738C51.1108 71.4367 55.1375 75.858 60.2687 78.5837C65.3998 81.3094 71.3176 82.1709 77.0129 81.0211C82.7082 79.8713 87.8283 76.7816 91.5001 72.2787C95.1719 67.7758 97.1681 62.1386 97.1481 56.3284C97.1523 53.029 96.503 49.7614 95.2376 46.7142C93.9723 43.667 92.1159 40.9006 89.7758 38.5746V38.6441Z" fill="#F2F2F2"/>
<path d="M54.5689 56.5716C54.4618 56.358 54.4392 56.1117 54.5057 55.8822C54.5723 55.6526 54.7229 55.4566 54.9277 55.3333C55.0318 55.2731 55.1467 55.2341 55.2659 55.2184C55.3851 55.2027 55.5062 55.2107 55.6223 55.2419C55.7384 55.273 55.8472 55.3268 55.9425 55.4001C56.0378 55.4734 56.1177 55.5647 56.1777 55.6689L63.1218 67.7285L87.9586 42.8686C88.1341 42.6947 88.3712 42.5972 88.6183 42.5972C88.8653 42.5972 89.1024 42.6947 89.278 42.8686C89.3626 42.9515 89.4299 43.0506 89.4758 43.1599C89.5218 43.2692 89.5454 43.3866 89.5454 43.5051C89.5454 43.6237 89.5218 43.741 89.4758 43.8503C89.4299 43.9596 89.3626 44.0587 89.278 44.1417L63.5731 69.8812L63.388 70.0317C63.2848 70.0915 63.1707 70.1304 63.0524 70.1459C62.9341 70.1614 62.8139 70.1533 62.6988 70.1221C62.5836 70.0909 62.4758 70.0372 62.3815 69.9641C62.2873 69.8909 62.2084 69.7998 62.1496 69.696L54.5689 56.5716Z" fill="#F2F2F2"/>
</g>
<defs>
<clipPath id="clip0">
<rect width="99" height="82.554" fill="white" transform="translate(0 0.775879)"/>
</clipPath>
</defs>
</svg>
