<svg width="68" height="78" viewBox="0 0 68 78" fill="none" xmlns="http://www.w3.org/2000/svg">
<g clip-path="url(#clip0)">
<path d="M66.23 30.9102L44.8 25.7102C44.7342 25.6949 44.6658 25.6949 44.6 25.7102H44.28C44.2207 25.6972 44.1593 25.6972 44.1 25.7102L23 30.8202L1.93 25.7102C1.69895 25.659 1.45955 25.6584 1.22824 25.7085C0.996936 25.7586 0.779205 25.8581 0.59 26.0002C0.406784 26.1466 0.258688 26.3322 0.15659 26.5433C0.0544913 26.7544 0.000984596 26.9857 0 27.2202L0 71.0002C0.00690539 71.3487 0.128083 71.6852 0.344896 71.958C0.561708 72.2308 0.862146 72.4248 1.2 72.5102L22.63 77.6902C22.7365 77.6984 22.8435 77.6984 22.95 77.6902C23.0631 77.6999 23.1769 77.6999 23.29 77.6902L44.38 72.6002L65.38 77.6902C65.4999 77.698 65.6201 77.698 65.74 77.6902C66.154 77.6852 66.55 77.5198 66.8446 77.2289C67.1393 76.938 67.3097 76.5442 67.32 76.1302V32.4202C67.3281 32.0841 67.2259 31.7545 67.0291 31.4818C66.8323 31.2091 66.5516 31.0084 66.23 30.9102ZM3.11 29.2002L21.45 33.6502V74.1702L3.11 69.7402V29.2002ZM24.57 33.6502L42.87 29.2002V69.7402L24.57 74.1702V33.6502ZM64.33 74.1702L46 69.7402V29.2002L64.35 33.6502L64.33 74.1702Z" fill="#E4E9F2"/>
<path d="M58.26 13.84C58.26 21.47 44.45 35.26 44.45 35.26C44.45 35.26 30.61 21.47 30.61 13.84C30.5603 11.9932 30.8812 10.1552 31.5536 8.43442C32.226 6.71366 33.2364 5.14507 34.5251 3.82126C35.8138 2.49745 37.3546 1.44526 39.0567 0.726798C40.7587 0.00833988 42.5875 -0.361816 44.435 -0.361816C46.2825 -0.361816 48.1112 0.00833988 49.8133 0.726798C51.5153 1.44526 53.0562 2.49745 54.3449 3.82126C55.6335 5.14507 56.6439 6.71366 57.3164 8.43442C57.9888 10.1552 58.3097 11.9932 58.26 13.84Z" fill="#F2F2F2"/>
<path d="M44.45 7.16016L46.66 11.6402L51.65 12.3902L48.03 15.8902L48.89 20.8502L44.45 18.5202L39.98 20.8502L40.83 15.8902L37.24 12.3902L42.21 11.6402L44.45 7.16016Z" fill="#F90000"/>
</g>
<defs>
<clipPath id="clip0">
<rect width="67.44" height="77.71" fill="white"/>
</clipPath>
</defs>
</svg>
