<svg width="44" height="44" viewBox="0 0 44 44" fill="none" xmlns="http://www.w3.org/2000/svg">
<path d="M2.55975 0H29.6881C30.3694 0.0057723 31.0215 0.277772 31.505 0.757886C31.9791 1.23797 32.2459 1.885 32.2478 2.55975V18.1943C32.2485 18.2465 32.2387 18.2984 32.219 18.3468C32.1993 18.3952 32.1701 18.4392 32.1332 18.4762C32.0962 18.5131 32.0522 18.5423 32.0038 18.562C31.9554 18.5817 31.9035 18.5915 31.8513 18.5908L31.2239 18.5406H30.6166C27.4369 18.5446 24.3888 19.8109 22.1423 22.0612C19.8958 24.3114 18.6346 27.3616 18.636 30.5413C18.6388 31.9355 18.8798 33.3189 19.3487 34.6319C19.8394 35.9487 20.5506 37.1724 21.4517 38.2507C21.4856 38.2896 21.5114 38.3349 21.5276 38.3839C21.5437 38.433 21.5499 38.4848 21.5457 38.5362C21.5414 38.5877 21.527 38.6378 21.5031 38.6836C21.4792 38.7294 21.4463 38.7699 21.4065 38.8028C21.337 38.8668 21.2451 38.9011 21.1505 38.8981H2.55975C1.8801 38.8985 1.22754 38.6317 0.742829 38.1553V38.1252C0.271241 37.6577 0.00412953 37.0224 0 36.3585L0 2.55975C0.00194616 1.885 0.268686 1.23797 0.742829 0.757886C1.22722 0.27912 1.87872 0.0073597 2.55975 0V0ZM29.6881 0.808077H2.55975C2.32836 0.803163 2.09836 0.845093 1.88359 0.931346C1.66882 1.0176 1.47371 1.1464 1.30999 1.30999C0.988207 1.6384 0.80801 2.07989 0.808077 2.53967V36.3585C0.805604 36.8202 0.986061 37.2641 1.30999 37.5932C1.47156 37.7631 1.66518 37.8994 1.87968 37.9941C2.09417 38.0889 2.32531 38.1403 2.55975 38.1453H20.3274C19.6085 37.1606 19.0291 36.0814 18.6059 34.938C17.8965 33.0046 17.6643 30.9284 17.9292 28.886C18.194 26.8435 18.9481 24.8953 20.1272 23.2067C21.3063 21.5181 22.8756 20.1391 24.7018 19.1869C26.528 18.2348 28.5571 17.7376 30.6166 17.7375H31.2339H31.4397V2.55975C31.4398 2.09996 31.2596 1.65848 30.9378 1.33006C30.7744 1.166 30.5794 1.03689 30.3645 0.950606C30.1497 0.864319 29.9195 0.822656 29.6881 0.828154V0.808077Z" fill="#F2F2F2"/>
<path d="M5.58131 8.06102C5.52583 8.06729 5.46966 8.06178 5.41646 8.04484C5.36327 8.0279 5.31425 7.99991 5.27261 7.96272C5.23098 7.92553 5.19766 7.87996 5.17486 7.829C5.15205 7.77805 5.14026 7.72285 5.14026 7.66702C5.14026 7.61119 5.15205 7.55599 5.17486 7.50503C5.19766 7.45408 5.23098 7.40851 5.27261 7.37131C5.31425 7.33412 5.36327 7.30614 5.41646 7.2892C5.46966 7.27226 5.52583 7.26675 5.58131 7.27302H26.6616C26.7171 7.26675 26.7732 7.27226 26.8264 7.2892C26.8796 7.30614 26.9286 7.33412 26.9703 7.37131C27.0119 7.40851 27.0452 7.45408 27.068 7.50503C27.0908 7.55599 27.1026 7.61119 27.1026 7.66702C27.1026 7.72285 27.0908 7.77805 27.068 7.829C27.0452 7.87996 27.0119 7.92553 26.9703 7.96272C26.9286 7.99991 26.8796 8.0279 26.8264 8.04484C26.7732 8.06178 26.7171 8.06729 26.6616 8.06102H5.58131Z" fill="#F2F2F2"/>
<path d="M5.58129 15.935C5.4819 15.9239 5.39008 15.8766 5.3234 15.8021C5.25671 15.7275 5.21985 15.631 5.21985 15.531C5.21985 15.431 5.25671 15.3345 5.3234 15.2599C5.39008 15.1854 5.4819 15.138 5.58129 15.127H24.2675C24.3668 15.138 24.4587 15.1854 24.5253 15.2599C24.592 15.3345 24.6289 15.431 24.6289 15.531C24.6289 15.631 24.592 15.7275 24.5253 15.8021C24.4587 15.8766 24.3668 15.9239 24.2675 15.935H5.58129Z" fill="#F2F2F2"/>
<path d="M5.58131 23.7905C5.52583 23.7968 5.46966 23.7913 5.41646 23.7743C5.36327 23.7574 5.31425 23.7294 5.27261 23.6922C5.23098 23.655 5.19766 23.6095 5.17486 23.5585C5.15205 23.5075 5.14026 23.4523 5.14026 23.3965C5.14026 23.3407 5.15205 23.2855 5.17486 23.2345C5.19766 23.1836 5.23098 23.138 5.27261 23.1008C5.31425 23.0636 5.36327 23.0356 5.41646 23.0187C5.46966 23.0018 5.52583 22.9962 5.58131 23.0025H17.7677C17.8232 22.9962 17.8794 23.0018 17.9326 23.0187C17.9858 23.0356 18.0348 23.0636 18.0764 23.1008C18.118 23.138 18.1514 23.1836 18.1742 23.2345C18.197 23.2855 18.2088 23.3407 18.2088 23.3965C18.2088 23.4523 18.197 23.5075 18.1742 23.5585C18.1514 23.6095 18.118 23.655 18.0764 23.6922C18.0348 23.7294 17.9858 23.7574 17.9326 23.7743C17.8794 23.7913 17.8232 23.7968 17.7677 23.7905H5.58131Z" fill="#F2F2F2"/>
<path d="M5.58132 31.6651C5.47616 31.6651 5.37531 31.6233 5.30095 31.549C5.22659 31.4746 5.18481 31.3737 5.18481 31.2686C5.18481 31.1634 5.22659 31.0626 5.30095 30.9882C5.37531 30.9138 5.47616 30.8721 5.58132 30.8721H12.5177C12.6229 30.8721 12.7238 30.9138 12.7981 30.9882C12.8725 31.0626 12.9142 31.1634 12.9142 31.2686C12.9142 31.3737 12.8725 31.4746 12.7981 31.549C12.7238 31.6233 12.6229 31.6651 12.5177 31.6651H5.58132Z" fill="#F2F2F2"/>
<path d="M30.6167 17.7373C33.5745 17.7361 36.4411 18.7607 38.7282 20.6363C41.0152 22.5119 42.5811 25.1225 43.159 28.0233C43.7369 30.9241 43.291 33.9355 41.8974 36.5444C40.5037 39.1533 38.2486 41.1982 35.5161 42.3306C32.7837 43.463 29.7432 43.6129 26.9126 42.7548C24.0821 41.8966 21.6367 40.0834 19.9932 37.6243C18.3497 35.1651 17.6098 32.2122 17.8995 29.2686C18.1893 26.325 19.4908 23.573 21.5823 21.4816C22.7679 20.294 24.1762 19.352 25.7265 18.7095C27.2768 18.067 28.9385 17.7366 30.6167 17.7373ZM39.1492 22.0537C37.1863 20.0902 34.6034 18.8679 31.8404 18.5953C29.0775 18.3226 26.3054 19.0164 23.9966 20.5584C21.6878 22.1004 19.9851 24.3953 19.1786 27.0519C18.3721 29.7086 18.5117 32.5627 19.5736 35.128C20.6356 37.6933 22.5541 39.811 25.0023 41.1203C27.4506 42.4297 30.2771 42.8496 33.0003 42.3086C35.7234 41.7676 38.1748 40.2992 39.9366 38.1534C41.6985 36.0077 42.6618 33.3174 42.6626 30.5411C42.6623 27.3582 41.3986 24.3056 39.1492 22.0537Z" fill="#F2F2F2"/>
<path d="M24.7894 32.7698L26.9828 32.5791L27.0179 32.9455C27.0537 33.2565 27.1227 33.5627 27.2237 33.859C27.3034 34.1144 27.4147 34.3589 27.555 34.5868C27.6975 34.7889 27.8663 34.9712 28.0569 35.1288C28.2986 35.3146 28.5635 35.4682 28.8449 35.5856C29.1653 35.7283 29.5026 35.8295 29.8487 35.8867C30.2135 35.9629 30.5853 35.9999 30.9579 35.9971C31.2857 35.9947 31.6129 35.9679 31.9367 35.9168C32.2226 35.8707 32.5033 35.7967 32.7749 35.696C33.0027 35.6046 33.2198 35.4885 33.4223 35.3497C33.5873 35.2271 33.7358 35.0837 33.864 34.923C33.9735 34.7692 34.0597 34.6001 34.12 34.4211C34.1771 34.248 34.2043 34.0664 34.2003 33.8841C34.2012 33.7146 34.1793 33.5458 34.135 33.3822C34.0732 33.2236 33.9887 33.0748 33.8841 32.9405C33.7608 32.7936 33.6172 32.6652 33.4575 32.559C33.2322 32.4199 32.9934 32.3038 32.7447 32.2127C32.4392 32.0998 32.1275 32.0042 31.8112 31.9266C31.3846 31.8012 30.8475 31.6757 30.185 31.5151C29.5225 31.3545 28.9202 31.1838 28.4434 31.0132C28.0398 30.8988 27.6481 30.7459 27.2739 30.5564C26.9272 30.3674 26.5995 30.1455 26.2952 29.8939C26.0154 29.6491 25.7705 29.3671 25.5674 29.0557C25.3776 28.7577 25.2337 28.4329 25.1408 28.092C25.0436 27.7474 24.9947 27.391 24.9952 27.033C24.9973 26.6302 25.0564 26.2297 25.1709 25.8435C25.2941 25.4617 25.4626 25.096 25.6728 24.7543C25.907 24.4007 26.1949 24.0858 26.5261 23.8208C26.8785 23.5438 27.2668 23.3158 27.6805 23.1432C28.1149 22.9676 28.5654 22.8348 29.0256 22.7467C29.523 22.6618 30.0267 22.6198 30.5313 22.6212C31.0665 22.6186 31.6009 22.6657 32.1274 22.7617C32.611 22.8408 33.0829 22.979 33.5327 23.1733C33.9603 23.3484 34.3608 23.5833 34.7223 23.871C35.0704 24.1478 35.3779 24.4722 35.6358 24.8346C35.8701 25.204 36.0557 25.6021 36.1879 26.0191C36.3214 26.4453 36.3957 26.8878 36.4087 27.3341V27.6955L33.8138 27.9013L33.7837 27.5399C33.7494 27.1602 33.6474 26.7896 33.4826 26.4458C33.3524 26.1527 33.1504 25.8972 32.8953 25.7029C32.6295 25.4832 32.3171 25.327 31.9818 25.2462C31.5355 25.1353 31.0764 25.0846 30.6166 25.0956C29.5375 25.0956 28.7646 25.2863 28.3078 25.6678C28.0971 25.8197 27.9251 26.0192 27.8059 26.25C27.687 26.4443 27.6181 26.665 27.6052 26.8925C27.603 27.0871 27.6406 27.28 27.7156 27.4596C27.7884 27.633 27.9042 27.785 28.0519 27.9013C28.3142 28.1056 28.6144 28.2557 28.9352 28.343C29.5394 28.5502 30.1563 28.7179 30.7823 28.8449C31.5753 29.0206 32.2378 29.1912 32.7899 29.3468C33.2478 29.4684 33.6957 29.6244 34.13 29.8136C34.5507 30.0053 34.9481 30.2445 35.3145 30.5263C35.6326 30.7903 35.91 31.0998 36.1377 31.4448C36.3555 31.7716 36.5246 32.1283 36.6396 32.5038C36.7477 32.8995 36.8001 33.3083 36.7952 33.7185C36.7987 34.1401 36.7464 34.5603 36.6396 34.9682C36.5042 35.3744 36.3187 35.7622 36.0875 36.1226C35.8471 36.5027 35.5471 36.8416 35.1991 37.1264C34.8373 37.4232 34.4393 37.6728 34.0146 37.8693C33.5638 38.0725 33.0927 38.2273 32.6092 38.331C32.0927 38.4264 31.5685 38.4735 31.0433 38.4716C30.4131 38.4766 29.7835 38.4296 29.1611 38.331C28.6137 38.2365 28.0784 38.0816 27.565 37.8693C27.1058 37.6699 26.6753 37.41 26.2851 37.0963C25.8924 36.7856 25.5533 36.4126 25.2813 35.9921C25.0176 35.5693 24.8148 35.1114 24.679 34.6319C24.5326 34.1429 24.4516 33.6365 24.4381 33.1262V32.7648L24.7894 32.7698ZM26.2952 33.3872L25.206 33.4976C25.2397 33.8126 25.2967 34.1246 25.3767 34.4312C25.5019 34.8287 25.6845 35.2057 25.9187 35.5504C26.1391 35.9084 26.4212 36.2245 26.7519 36.484C27.0835 36.7608 27.4517 36.9905 27.8461 37.1666C28.3023 37.3532 28.7791 37.4847 29.2665 37.5581C29.8465 37.6591 30.4344 37.7079 31.0232 37.7036C31.4943 37.7012 31.9644 37.6593 32.4285 37.5782C32.8594 37.4889 33.2787 37.3508 33.6783 37.1666C34.0393 37.0008 34.3768 36.7882 34.6821 36.5342C34.9644 36.2932 35.2141 36.0165 35.4249 35.711C35.6156 35.4095 35.769 35.0859 35.8817 34.7474C35.9751 34.421 36.0224 34.0831 36.0222 33.7435C36.0276 33.4037 35.9802 33.065 35.8817 32.7397C35.7955 32.4298 35.6618 32.1352 35.4852 31.8664C35.303 31.5869 35.0816 31.335 34.8277 31.1186C34.5222 30.8688 34.1846 30.6611 33.8239 30.5012C33.4331 30.3343 33.0304 30.1967 32.6193 30.0896C32.1174 29.929 31.4348 29.7734 30.6618 29.5877C30.0045 29.4613 29.3557 29.2936 28.7194 29.0858C28.3067 28.9548 27.9208 28.7508 27.5801 28.4835C27.3581 28.2916 27.1859 28.0488 27.0782 27.7758C26.9557 27.5031 26.8957 27.2064 26.9025 26.9075C26.9023 26.5592 26.9831 26.2155 27.1384 25.9037C27.3158 25.5783 27.5584 25.2929 27.8511 25.0655C28.6668 24.521 29.6375 24.2567 30.6166 24.3126C31.1481 24.3054 31.6782 24.3696 32.1926 24.5034C32.6257 24.6207 33.0316 24.8219 33.3872 25.0956C33.7138 25.371 33.9774 25.7133 34.1601 26.0994C34.317 26.4156 34.4237 26.7543 34.4763 27.1033L35.6006 27.0129C35.5728 26.7539 35.519 26.4983 35.44 26.25C35.332 25.897 35.1785 25.5595 34.9833 25.2462C34.7816 24.938 34.5306 24.665 34.2404 24.4381C33.9377 24.1898 33.5993 23.9885 33.2366 23.8408C32.8286 23.6759 32.4048 23.5532 31.9718 23.4744C31.491 23.3921 31.0041 23.3501 30.5163 23.349C30.0658 23.3531 29.6162 23.39 29.1711 23.4594C28.7591 23.5374 28.3569 23.6602 27.9716 23.8258C27.2963 24.0814 26.7163 24.5388 26.3102 25.1358C26.1296 25.4172 25.9862 25.7209 25.8836 26.0392C25.7889 26.3516 25.7415 26.6764 25.7431 27.0029C25.7438 27.2918 25.786 27.5792 25.8686 27.8561C25.9449 28.1224 26.0599 28.3761 26.2099 28.609C26.3693 28.858 26.5599 29.0857 26.777 29.2866C27.0293 29.511 27.3073 29.7048 27.6052 29.8638C27.947 30.0324 28.301 30.175 28.6642 30.2904C29.126 30.4309 29.668 30.5915 30.3406 30.7471C31.0131 30.9027 31.5753 31.0483 32.0019 31.1738C32.3428 31.2519 32.6781 31.3525 33.0057 31.4749C33.3054 31.5844 33.5916 31.7275 33.859 31.9015C34.0977 32.045 34.3072 32.2323 34.4763 32.4536C34.6357 32.6554 34.7596 32.8829 34.8427 33.1262C35.0099 33.6245 35.0099 34.1637 34.8427 34.662C34.7591 34.9128 34.6353 35.1484 34.4763 35.3597C34.3097 35.5999 34.1005 35.8074 33.859 35.972C33.6082 36.1529 33.3327 36.2966 33.0409 36.3987C32.7209 36.5365 32.3829 36.6277 32.037 36.6697C31.6725 36.7335 31.303 36.7654 30.9328 36.7651C30.52 36.7608 30.1084 36.7188 29.7032 36.6396C29.3108 36.5608 28.9286 36.4379 28.5638 36.2732C28.2203 36.1365 27.8976 35.9523 27.6052 35.7261C27.3359 35.5232 27.1018 35.2773 26.9125 34.9983C26.7336 34.7299 26.5934 34.4376 26.4959 34.13C26.4215 33.8915 26.3628 33.6484 26.3203 33.4022L26.2952 33.3872Z" fill="#F2F2F2"/>
<path d="M29.6379 20.0762H32.027V23.4892L31.5853 23.4289L31.0834 23.3838C30.9045 23.3735 30.7252 23.3735 30.5463 23.3838H30.1197L29.6931 23.4139L29.2665 23.4591V20.0762H29.6379ZM31.239 20.8692H30.0344V22.5857H30.5363C30.727 22.5857 30.9127 22.5857 31.1185 22.5857H31.249L31.239 20.8692ZM32.027 24.754V29.9237L30.6166 29.6125C30.205 29.5322 29.8437 29.4418 29.5074 29.3465L29.2263 29.2662V24.4077L29.5726 24.3625L30.0495 24.3123C30.2201 24.3123 30.3958 24.3123 30.5514 24.3123C30.707 24.3123 30.9429 24.3123 31.1185 24.3424C31.2991 24.3484 31.4788 24.3702 31.6556 24.4077L31.9868 24.4528L32.027 24.754ZM31.239 28.9299V25.1204H31.1185C30.9479 25.1204 30.7873 25.0903 30.6166 25.0903C30.446 25.0903 30.2803 25.0903 30.1147 25.0903H30.0344V28.6589C30.2703 28.7241 30.5363 28.7843 30.8124 28.8496L31.239 28.9299ZM32.027 31.4394V36.6894L31.6656 36.7396H31.3143H30.9529C30.717 36.7396 30.451 36.7396 30.2402 36.7095C30.0294 36.6794 29.7834 36.6443 29.5475 36.5991L29.2464 36.5188V30.4457C30.1599 30.6816 31.0934 30.9074 32.027 31.1584V31.4394ZM31.239 35.9566V31.7607L30.0344 31.4595V35.9014L30.3205 35.9466C30.5112 35.9466 30.7321 35.9817 30.9529 35.9817L31.239 35.9566ZM32.027 38.0597V40.9707H29.2464V37.5577L29.6881 37.6079C29.8939 37.638 30.1147 37.6531 30.3355 37.6732C30.5564 37.6933 30.7923 37.6732 31.0483 37.6732H31.3293L32.027 37.623V38.0597ZM31.239 40.1777V38.4712H31.0483C30.7923 38.4712 30.5463 38.4712 30.2904 38.4712H30.0344V40.2078L31.239 40.1777Z" fill="#F2F2F2"/>
</svg>
