<svg width="36" height="36" viewBox="0 0 36 36" fill="none" xmlns="http://www.w3.org/2000/svg">
<path d="M17.7195 35.2717C14.2148 35.2713 10.7889 34.2316 7.87502 32.2843C4.9611 30.337 2.69001 27.5694 1.34887 24.3314C0.00774087 21.0934 -0.343208 17.5305 0.3404 14.0931C1.02401 10.6557 2.71147 7.49818 5.18945 5.01974C8.52806 1.77158 13.0113 -0.0315614 17.6691 0.000418228C22.327 0.0323979 26.7851 1.89693 30.0788 5.19062C33.3724 8.48432 35.237 12.9423 35.269 17.6002C35.3009 22.2581 33.4978 26.7413 30.2496 30.0799C28.6082 31.731 26.6556 33.04 24.5048 33.9312C22.3539 34.8224 20.0477 35.278 17.7195 35.2717ZM17.7195 2.86655C14.8152 2.86617 11.9759 3.72712 9.56094 5.34052C7.14593 6.95391 5.26364 9.24727 4.15214 11.9305C3.04064 14.6138 2.74986 17.5664 3.31658 20.4149C3.88329 23.2635 5.28205 25.8799 7.33593 27.9334C9.04343 29.6406 11.1456 30.9004 13.4562 31.6011C15.7668 32.3019 18.2146 32.422 20.5827 31.9509C22.9508 31.4797 25.1662 30.4319 27.0327 28.9001C28.8991 27.3683 30.359 25.3999 31.2831 23.1691C32.2071 20.9384 32.5668 18.5142 32.3303 16.1113C32.0937 13.7084 31.2682 11.4009 29.9269 9.39315C28.5856 7.38544 26.7699 5.73947 24.6406 4.60105C22.5113 3.46262 20.1341 2.86687 17.7195 2.86655Z" fill="#F2F2F2"/>
<path d="M8.65735 22.0106L21.4155 9.40674V27.3433L16.4853 21.2124L8.65735 22.0106Z" fill="#F2F2F2"/>
</svg>
