<svg width="104" height="78" viewBox="0 0 104 78" fill="none" xmlns="http://www.w3.org/2000/svg">
<g clip-path="url(#clip0)">
<path d="M30.9984 0L34.5344 2.00252L28.6711 34.6652C33.3111 35.5449 37.4967 38.0214 40.5013 41.6649C43.7186 45.4505 45.3287 50.0073 45.3317 55.3353C45.3776 58.3015 44.8258 61.2466 43.7092 63.9951C42.5926 66.7435 40.9341 69.239 38.8326 71.3328C34.4998 75.7949 29.1116 78.0169 22.6681 77.9989C16.2186 77.7824 10.8289 75.4491 6.49915 70.9991C2.16939 66.5491 0.00300678 61.1053 0 54.6678C0.0288124 51.3758 0.590846 48.1102 1.66425 44.998C2.90961 41.4067 4.70995 38.0328 6.99978 34.9989L30.9984 0ZM89.6622 0L93.2027 2.00252L87.3394 34.6652C91.9815 35.5428 96.1691 38.0196 99.1741 41.6649C102.388 45.4505 104 50.0073 104.009 55.3353C104.054 58.3018 103.502 61.2471 102.384 63.9956C101.267 66.7441 99.6077 69.2394 97.5054 71.3328C93.1666 75.7949 87.7754 78.0169 81.3319 77.9989C74.8823 77.7824 69.4927 75.4491 65.1629 70.9991C60.8332 66.5491 58.6683 61.1053 58.6683 54.6678C58.6971 51.3758 59.2591 48.1102 60.3325 44.998C61.5762 41.4069 63.3751 38.0329 65.6636 34.9989L89.6622 0Z" fill="#E4E9F2"/>
</g>
<defs>
<clipPath id="clip0">
<rect width="104" height="77.9989" fill="white"/>
</clipPath>
</defs>
</svg>
