<svg width="119" height="87" viewBox="0 0 119 87" fill="none" xmlns="http://www.w3.org/2000/svg">
<g clip-path="url(#clip0)">
<path d="M64.6542 27.3042H16.0994C15.9286 27.3042 15.7902 27.4426 15.7902 27.6134V36.3572C15.7902 36.528 15.9286 36.6665 16.0994 36.6665H64.6542C64.825 36.6665 64.9635 36.528 64.9635 36.3572V27.6134C64.9635 27.4426 64.825 27.3042 64.6542 27.3042Z" stroke="#F90000" stroke-width="1.79613" stroke-miterlimit="10"/>
<path d="M60.266 0.89502H19.3759C19.1143 0.89502 18.9022 1.1071 18.9022 1.36873V26.7778C18.9022 27.0394 19.1143 27.2515 19.3759 27.2515H60.266C60.5276 27.2515 60.7397 27.0394 60.7397 26.7778V1.36873C60.7397 1.1071 60.5276 0.89502 60.266 0.89502Z" stroke="#F90000" stroke-width="1.79613" stroke-miterlimit="10"/>
<path d="M49.8181 36.6731H64.1214C64.4767 42.5352 63.3582 47.4763 61.7989 49.4698C59.9765 51.7922 57.4566 53.1673 57.3645 55.8056V55.8516C57.3697 56.3769 57.4785 56.896 57.6849 57.379C57.8913 57.8621 58.1911 58.2996 58.5671 58.6664C58.9431 59.0333 59.3879 59.3222 59.8759 59.5166C60.3639 59.711 60.8855 59.807 61.4107 59.7992H68.2532C69.4355 59.8111 70.6051 59.5557 71.6749 59.0522C72.7447 58.5486 73.6868 57.8099 74.4311 56.8912L74.464 56.8451L74.51 56.7859C76.1416 54.591 77.0082 51.9216 76.9772 49.1869V19.2842H86.2606C86.5501 24.28 86.8308 29.2759 87.1027 34.2717H91.7674C92.3868 34.2717 92.9809 34.5178 93.4189 34.9558C93.857 35.3938 94.103 35.9879 94.103 36.6073V46.621" stroke="#F90000" stroke-width="1.79613" stroke-miterlimit="10"/>
<path d="M16.3692 36.6729C11.3064 40.0149 7.21556 44.6341 4.51 50.0637C1.80444 55.4933 0.580051 61.5409 0.960574 67.5953C0.960574 67.9045 0.99347 68.1874 1.01321 68.444" stroke="#F90000" stroke-width="1.79613" stroke-miterlimit="10"/>
<path d="M53.0156 67.6153C53.0156 67.2666 53.0156 66.9179 53.0156 66.5627C53.0156 60.5427 50.6241 54.7692 46.3674 50.5125C42.1106 46.2557 36.3372 43.8643 30.3172 43.8643C24.2972 43.8643 18.5238 46.2557 14.267 50.5125C10.0102 54.7692 7.61877 60.5427 7.61877 66.5627C7.61877 66.9179 7.61877 67.2666 7.61877 67.6153" stroke="#F90000" stroke-width="1.79613" stroke-miterlimit="10"/>
<path d="M11.29 67.6152C11.5133 72.5202 13.619 77.1503 17.169 80.5424C20.719 83.9345 25.44 85.8274 30.3501 85.8274C35.2602 85.8274 39.9813 83.9345 43.5313 80.5424C47.0813 77.1503 49.1869 72.5202 49.4102 67.6152" stroke="#F90000" stroke-width="1.79613" stroke-miterlimit="10"/>
<path d="M39.1531 67.6152C38.896 69.7684 37.8584 71.7526 36.2367 73.1922C34.615 74.6318 32.5218 75.4268 30.3533 75.4268C28.1849 75.4268 26.0917 74.6318 24.47 73.1922C22.8483 71.7526 21.8107 69.7684 21.5536 67.6152H39.1531Z" stroke="#F90000" stroke-width="1.79613" stroke-miterlimit="10"/>
<path d="M90.9319 66.9835C91.0033 68.2125 91.3807 69.4041 92.0297 70.4501C92.6787 71.4961 93.5788 72.3634 94.6481 72.9732C95.7175 73.5829 96.9223 73.9158 98.153 73.9416C99.3837 73.9674 100.601 73.6853 101.695 73.1209C102.789 72.5565 103.725 71.7278 104.417 70.7099C105.11 69.692 105.537 68.5172 105.66 67.2924C105.782 66.0675 105.597 64.8314 105.121 63.6963C104.645 62.5611 103.892 61.563 102.932 60.7925V60.7925" stroke="#F90000" stroke-width="1.79613" stroke-miterlimit="10"/>
<path d="M114.689 60.6475C115.381 62.5446 115.731 64.5494 115.722 66.5688C115.75 68.8549 115.327 71.1241 114.478 73.2468C113.628 75.3695 112.369 77.3042 110.772 78.9403C109.175 80.5763 107.272 81.8819 105.17 82.7823C103.069 83.6827 100.81 84.1604 98.5243 84.188C93.9072 84.2438 89.457 82.4633 86.1528 79.238C84.5167 77.641 83.2112 75.7374 82.3108 73.6358C81.4103 71.5343 80.9327 69.276 80.905 66.9899" stroke="#F90000" stroke-width="1.79613" stroke-miterlimit="10"/>
<path d="M117.801 60.6477C116.532 56.4644 113.953 52.7997 110.443 50.1936C106.933 47.5876 102.679 46.1782 98.3072 46.1733C96.8993 46.1744 95.4952 46.3177 94.1162 46.601C89.7232 47.5303 85.7597 49.8833 82.8405 53.2951C79.9213 56.7068 78.2095 60.9865 77.9707 65.4703" stroke="#F90000" stroke-width="1.79613" stroke-miterlimit="10"/>
<path d="M117.801 60.6475H104.432C103.929 60.6542 103.427 60.7026 102.932 60.7922C101.081 61.1049 99.384 62.0182 98.1032 63.391C97.1851 64.413 96.5362 65.6476 96.2149 66.9833H78.8918C78.717 66.4151 78.4 65.901 77.9707 65.4898C77.5785 65.0868 77.0848 64.7971 76.5418 64.6512C75.9987 64.5053 75.4263 64.5086 74.885 64.6608C74.2767 64.8845 73.7496 65.2857 73.3719 65.8124C72.9942 66.3391 72.7833 66.967 72.7665 67.6149H0.960571" stroke="#F90000" stroke-width="1.79613" stroke-miterlimit="10"/>
<path d="M79.6614 7.67842H85.3788C86.1181 7.6819 86.8259 7.97804 87.3475 8.50204C87.869 9.02605 88.1618 9.73529 88.1618 10.4746V17.2775C88.1618 17.801 87.9538 18.3031 87.5837 18.6732C87.2135 19.0434 86.7115 19.2513 86.188 19.2513H79.418C78.641 19.2508 77.872 19.0944 77.1566 18.7914C76.4411 18.4884 75.7937 18.045 75.2527 17.4874C74.7116 16.9298 74.2879 16.2693 74.0066 15.545C73.7253 14.8207 73.5922 14.0474 73.6151 13.2708C73.7113 11.7403 74.393 10.3056 75.5188 9.26429C76.6446 8.22301 78.1281 7.65512 79.6614 7.67842V7.67842Z" stroke="#F90000" stroke-width="1.79613" stroke-miterlimit="10"/>
<path d="M67.9175 12.7441H82.28" stroke="#F90000" stroke-width="1.79613" stroke-miterlimit="10"/>
</g>
<defs>
<clipPath id="clip0">
<rect width="118.663" height="86.55" fill="white"/>
</clipPath>
</defs>
</svg>
