<svg width="43" height="37" viewBox="0 0 43 37" fill="none" xmlns="http://www.w3.org/2000/svg">
<g clip-path="url(#clip0)">
<path d="M30.0343 4.54359L15.775 8.05697V28.2991L19.8555 27.2952C19.7752 26.9288 19.6949 26.5524 19.6497 26.1709C19.5922 25.6561 19.567 25.1381 19.5744 24.62C19.5805 21.736 20.6516 18.9558 22.5821 16.8132C24.5126 14.6705 27.1665 13.3164 30.0343 13.0108V4.54359ZM15.3182 7.36935L30.3053 3.71544C30.3418 3.70814 30.3793 3.70814 30.4157 3.71544C30.466 3.71402 30.516 3.72295 30.5626 3.74168C30.6093 3.76042 30.6516 3.78855 30.6869 3.82433C30.7222 3.86011 30.7497 3.90277 30.7679 3.94966C30.786 3.99655 30.7942 4.04667 30.7922 4.09689V13.3622C30.7942 13.4096 30.7868 13.457 30.7705 13.5017C30.7542 13.5463 30.7292 13.5872 30.6971 13.6222C30.6649 13.6572 30.6261 13.6854 30.583 13.7054C30.5399 13.7254 30.4933 13.7367 30.4458 13.7386C28.9604 13.8461 27.5127 14.2562 26.1916 14.9438C24.8705 15.6314 23.704 16.582 22.7638 17.737C21.8236 18.892 21.1296 20.2271 20.7244 21.6603C20.3192 23.0934 20.2114 24.5942 20.4076 26.0706C20.472 26.5498 20.5676 27.0242 20.6937 27.491C20.7164 27.5901 20.699 27.6942 20.6455 27.7806C20.5919 27.867 20.5065 27.9289 20.4076 27.9527L15.524 29.1372C15.484 29.1538 15.4417 29.164 15.3985 29.1674C15.2982 29.1674 15.202 29.1279 15.1306 29.0574C15.0592 28.987 15.0184 28.8912 15.0171 28.7909V7.71065C15.0221 7.62616 15.0541 7.5455 15.1083 7.48048C15.1625 7.41546 15.236 7.36948 15.3182 7.34927V7.36935Z" fill="#F2F2F2"/>
<path d="M0.501914 3.71571L15.489 7.36962C15.5686 7.39133 15.6391 7.43829 15.6898 7.50345C15.7404 7.56862 15.7686 7.64846 15.7701 7.731V28.8113C15.7707 28.8609 15.7615 28.9101 15.7428 28.9561C15.7241 29.0021 15.6964 29.0439 15.6613 29.079C15.6262 29.114 15.5844 29.1417 15.5385 29.1604C15.4925 29.1791 15.4432 29.1884 15.3936 29.1877C15.3551 29.1855 15.3175 29.1752 15.2832 29.1576L0.286092 25.4836C0.202858 25.468 0.128074 25.4228 0.0755069 25.3564C0.0229394 25.29 -0.00387405 25.2068 2.23977e-06 25.1222V4.0821C-0.00067275 4.03182 0.00873279 3.98192 0.0276636 3.93533C0.0465944 3.88875 0.0746666 3.84643 0.110223 3.81087C0.14578 3.77531 0.1881 3.74724 0.234684 3.72831C0.281269 3.70938 0.331175 3.69997 0.381455 3.70065C0.422978 3.69353 0.465409 3.69353 0.506933 3.70065L0.501914 3.71571ZM15.0172 8.05724L0.757888 4.54386V24.8211L15.0172 28.2993V8.05724Z" fill="#F2F2F2"/>
<path d="M0.301107 3.70106L15.3183 0.528983C15.369 0.513776 15.4231 0.513776 15.4739 0.528983L30.4961 3.69102C30.5961 3.71384 30.6832 3.77501 30.7386 3.86137C30.7939 3.94772 30.8132 4.05236 30.7922 4.15278C30.774 4.22261 30.7366 4.28594 30.6843 4.33561C30.632 4.38529 30.5668 4.41932 30.4961 4.43385L15.494 8.11286C15.4364 8.12796 15.3759 8.12796 15.3183 8.11286L0.28605 4.44389C0.187595 4.42117 0.102175 4.36032 0.0485389 4.27469C-0.00509758 4.18906 -0.0225685 4.08565 -3.93288e-05 3.98715C0.0165546 3.91518 0.0539543 3.84968 0.107502 3.79881C0.16105 3.74794 0.22838 3.71395 0.301107 3.70106ZM15.3986 1.30193L2.10297 4.09757L15.3986 7.35498L28.7093 4.09757L15.3986 1.30193Z" fill="#F2F2F2"/>
<path d="M3.74421 22.7336C3.74557 22.7836 3.7368 22.8334 3.71843 22.88C3.70005 22.9266 3.67246 22.9689 3.6373 23.0046C3.60214 23.0402 3.56014 23.0684 3.51382 23.0873C3.46751 23.1063 3.41783 23.1158 3.36778 23.1151C3.31922 23.1138 3.2714 23.1028 3.22711 23.0829C3.18281 23.063 3.14293 23.0344 3.10977 22.9989C3.0766 22.9634 3.05083 22.9217 3.03395 22.8761C3.01707 22.8306 3.00941 22.7821 3.01142 22.7336V7.46547C3.01075 7.41519 3.02015 7.36529 3.03908 7.3187C3.05802 7.27212 3.08609 7.2298 3.12164 7.19424C3.1572 7.15868 3.19952 7.13061 3.24611 7.11168C3.29269 7.09275 3.3426 7.08334 3.39288 7.08402C3.49317 7.08534 3.58891 7.12611 3.65936 7.1975C3.72982 7.2689 3.76932 7.36517 3.76931 7.46547L3.74421 22.7336Z" fill="#F2F2F2"/>
<path d="M6.72059 20.2996C6.70972 20.3951 6.66406 20.4833 6.59232 20.5474C6.52058 20.6114 6.42777 20.6468 6.33161 20.6468C6.23544 20.6468 6.14264 20.6114 6.0709 20.5474C5.99916 20.4833 5.9535 20.3951 5.94263 20.2996V9.89997C5.9535 9.80442 5.99916 9.71621 6.0709 9.65217C6.14264 9.58813 6.23544 9.55273 6.33161 9.55273C6.42777 9.55273 6.52058 9.58813 6.59232 9.65217C6.66406 9.71621 6.70972 9.80442 6.72059 9.89997V20.2996Z" fill="#F2F2F2"/>
<path d="M31.239 12.9365C33.9398 12.9413 36.5554 13.8819 38.6407 15.5983C40.726 17.3147 42.1519 19.7007 42.6759 22.3501C43.1998 24.9996 42.7894 27.7488 41.5144 30.1297C40.2394 32.5106 38.1787 34.376 35.683 35.4084C33.1874 36.4408 30.411 36.5764 27.8266 35.7921C25.2422 35.0078 23.0095 33.3521 21.5086 31.1068C20.0076 28.8615 19.3312 26.1654 19.5945 23.4775C19.8577 20.7896 21.0444 18.276 22.9524 16.3646C25.1494 14.1772 28.1238 12.9499 31.2239 12.9516L31.239 12.9365ZM38.9333 16.9518C37.1496 15.1721 34.8038 14.0663 32.2958 13.8228C29.7879 13.5794 27.2732 14.2135 25.1805 15.6169C23.0878 17.0204 21.5468 19.1063 20.8201 21.5189C20.0935 23.9316 20.2263 26.5216 21.1958 28.8473C22.1654 31.173 23.9117 33.0904 26.1369 34.2725C28.3621 35.4546 30.9285 35.8282 33.3984 35.3295C35.8683 34.8309 38.0887 33.491 39.6811 31.5382C41.2735 29.5854 42.1391 27.1407 42.1305 24.621C42.1323 23.1901 41.8507 21.7731 41.3019 20.4516C40.7532 19.1301 39.9482 17.9304 38.9333 16.9217V16.9518Z" fill="#F2F2F2"/>
<path d="M23.6651 24.7263C23.6187 24.6337 23.6089 24.5269 23.6377 24.4273C23.6666 24.3278 23.7319 24.2428 23.8207 24.1893C23.8658 24.1632 23.9157 24.1463 23.9674 24.1395C24.0191 24.1327 24.0716 24.1361 24.1219 24.1497C24.1723 24.1632 24.2195 24.1865 24.2608 24.2183C24.3021 24.2501 24.3368 24.2897 24.3628 24.3349L27.3742 29.5648L38.1453 18.7837C38.2214 18.7083 38.3242 18.666 38.4313 18.666C38.5385 18.666 38.6413 18.7083 38.7174 18.7837C38.7542 18.8197 38.7833 18.8626 38.8033 18.91C38.8232 18.9575 38.8334 19.0083 38.8334 19.0598C38.8334 19.1112 38.8232 19.1621 38.8033 19.2095C38.7833 19.2569 38.7542 19.2998 38.7174 19.3358L27.57 30.4983L27.4897 30.5636C27.4449 30.5895 27.3955 30.6064 27.3442 30.6131C27.2929 30.6198 27.2407 30.6163 27.1908 30.6028C27.1409 30.5893 27.0941 30.566 27.0532 30.5343C27.0123 30.5025 26.9782 30.463 26.9526 30.418L23.6651 24.7263Z" fill="#F2F2F2"/>
</g>
<defs>
<clipPath id="clip0">
<rect width="42.9335" height="35.8013" fill="white" transform="translate(0 0.529297)"/>
</clipPath>
</defs>
</svg>
