<svg width="46" height="36" viewBox="0 0 46 36" fill="none" xmlns="http://www.w3.org/2000/svg">
<path d="M44.799 35.437H1.31258C1.12889 35.4381 0.94742 35.3968 0.782304 35.3163C0.617187 35.2358 0.472872 35.1182 0.360588 34.9729C0.248305 34.8275 0.171081 34.6581 0.134927 34.478C0.0987718 34.2979 0.104661 34.1119 0.152136 33.9345L4.13654 18.9091C4.20199 18.6526 4.35083 18.4251 4.55968 18.2623C4.76853 18.0996 5.02553 18.011 5.29028 18.0103H40.8079C41.0735 18.0106 41.3314 18.0991 41.5414 18.2617C41.7514 18.4243 41.9015 18.652 41.9683 18.9091L45.9594 33.9345C46.0069 34.1119 46.0128 34.2979 45.9766 34.478C45.9405 34.6581 45.8632 34.8275 45.751 34.9729C45.6387 35.1182 45.4944 35.2358 45.3292 35.3163C45.1641 35.3968 44.9827 35.4381 44.799 35.437ZM2.86878 33.0423H43.2428L39.8889 20.4049H6.22266L2.86878 33.0423Z" fill="#F2F2F2"/>
<path fill-rule="evenodd" clip-rule="evenodd" d="M23.0524 27.1262C23.0524 27.1262 33.6909 16.5145 33.6909 10.6385C33.6909 9.24144 33.4158 7.85805 32.8811 6.56732C32.3465 5.2766 31.5629 4.10382 30.575 3.11595C29.5871 2.12807 28.4143 1.34444 27.1236 0.809808C25.8329 0.275173 24.4495 0 23.0524 0C21.6554 0 20.272 0.275173 18.9813 0.809808C17.6905 1.34444 16.5178 2.12807 15.5299 3.11595C14.542 4.10382 13.7584 5.2766 13.2237 6.56732C12.6891 7.85805 12.4139 9.24144 12.4139 10.6385C12.4139 16.5145 23.0524 27.1262 23.0524 27.1262ZM26.5972 13.5296C27.0645 12.8283 27.3131 12.0041 27.3118 11.1614C27.31 10.0329 26.8605 8.95122 26.0619 8.15388C25.2633 7.35653 24.1809 6.90869 23.0524 6.90869C22.2097 6.90869 21.3859 7.15867 20.6853 7.627C19.9847 8.09533 19.4387 8.76096 19.1166 9.53966C18.7944 10.3184 18.7104 11.1751 18.8753 12.0016C19.0402 12.828 19.4465 13.5869 20.0429 14.1824C20.6393 14.7778 21.3988 15.1829 22.2255 15.3465C23.0522 15.5101 23.9089 15.4248 24.6871 15.1014C25.4652 14.778 26.13 14.231 26.5972 13.5296Z" fill="#F2F2F2"/>
</svg>
