<svg width="108" height="84" viewBox="0 0 108 84" fill="none" xmlns="http://www.w3.org/2000/svg">
<g clip-path="url(#clip0)">
<path d="M67.8506 1.60547H1.43971C1.05455 1.60547 0.74231 1.91771 0.74231 2.30287V12.5204C0.74231 12.9056 1.05455 13.2178 1.43971 13.2178H67.8506C68.2358 13.2178 68.548 12.9056 68.548 12.5204V2.30287C68.548 1.91771 68.2358 1.60547 67.8506 1.60547Z" stroke="#F90000" stroke-width="1.31585" stroke-miterlimit="10"/>
<path d="M64.278 13.2178H5.17007C4.43608 13.2178 3.84106 13.8128 3.84106 14.5468V58.1738C3.84106 58.9078 4.43608 59.5028 5.17007 59.5028H64.278C65.012 59.5028 65.607 58.9078 65.607 58.1738V14.5468C65.607 13.8128 65.012 13.2178 64.278 13.2178Z" stroke="#F90000" stroke-width="1.31585" stroke-miterlimit="10"/>
<path d="M49.9683 19.7178H21.9473C21.6057 19.7178 21.3289 19.9947 21.3289 20.3362V26.9944C21.3289 27.336 21.6057 27.6129 21.9473 27.6129H49.9683C50.3099 27.6129 50.5868 27.336 50.5868 26.9944V20.3362C50.5868 19.9947 50.3099 19.7178 49.9683 19.7178Z" stroke="#F90000" stroke-width="1.31585" stroke-miterlimit="10"/>
<path d="M11.1902 59.5029V70.7271H17.6905C18.3275 68.6959 19.5671 66.9065 21.2449 65.5963C22.9227 64.2862 24.9592 63.5172 27.0842 63.3916C29.2093 63.266 31.3222 63.7896 33.1427 64.8929C34.9632 65.9963 36.405 67.6272 37.2769 69.5692C38.0274 67.8129 39.2484 66.298 40.8052 65.1916C42.3621 64.0852 44.1943 63.4303 46.0997 63.2992C48.3534 63.2201 50.5725 63.87 52.4274 65.1525C54.2824 66.435 55.6742 68.2815 56.3962 70.4179H69.5547" stroke="#F90000" stroke-width="1.31585" stroke-miterlimit="10"/>
<path d="M91.2267 63.9967C89.1481 63.9841 87.1123 64.5872 85.3759 65.73C83.6395 66.8727 82.2803 68.5039 81.4697 70.418H69.5481V28.4688H78.759C82.1819 29.0647 85.3103 30.7793 87.6542 33.344C89.4103 35.2988 90.6378 37.67 91.2201 40.2324V49.2065C95.1719 49.2543 99.0009 50.5868 102.129 53.0028C104.138 54.5886 105.777 56.5937 106.931 58.878V70.497H100.813C100.029 68.5909 98.7017 66.9578 96.9957 65.8017C95.2897 64.6456 93.2809 64.0178 91.2201 63.9967" stroke="#F90000" stroke-width="1.31585" stroke-miterlimit="10"/>
<path d="M11.1902 59.9697H81.7789" stroke="#F90000" stroke-width="1.31585" stroke-miterlimit="10"/>
<path d="M91.2267 54.667V65.1148" stroke="#F90000" stroke-width="1.31585" stroke-miterlimit="10"/>
<path d="M106.938 59.5425H91.2267" stroke="#F90000" stroke-width="1.31585" stroke-miterlimit="10"/>
<path d="M86.3515 49.2066V42.805C85.6023 40.9225 84.4529 39.2254 82.9829 37.8311C80.5598 35.5935 77.4495 34.2436 74.1602 34.002V49.0947L86.3515 49.2066Z" stroke="#F90000" stroke-width="1.31585" stroke-miterlimit="10"/>
<path d="M69.9823 17.2577V24.9159C69.9823 25.0764 70.0461 25.2304 70.1596 25.3439C70.2731 25.4574 70.4271 25.5212 70.5876 25.5212H76.3181C76.4312 25.5212 76.5421 25.4899 76.6384 25.4307C76.7348 25.3715 76.8128 25.2868 76.864 25.1859C76.9151 25.085 76.9372 24.972 76.928 24.8593C76.9187 24.7466 76.8784 24.6386 76.8116 24.5475L71.081 16.8892C71.0036 16.7875 70.8962 16.7126 70.774 16.675C70.6518 16.6374 70.5209 16.639 70.3996 16.6797C70.2784 16.7203 70.173 16.798 70.0981 16.9016C70.0233 17.0053 69.9828 17.1298 69.9823 17.2577V17.2577Z" stroke="#F90000" stroke-width="1.31585" stroke-miterlimit="10"/>
<path d="M26.1119 43.3773L36.3427 33.186L46.3826 43.1733H38.7441V54.6673H31.8951V43.2786L26.1251 43.4036C26.1251 43.4036 26.1054 43.3904 26.1119 43.3773Z" stroke="#F90000" stroke-width="1.31585" stroke-miterlimit="10"/>
<path d="M20.8682 54.5488H50.2445" stroke="#F90000" stroke-width="1.31585" stroke-miterlimit="10"/>
<path d="M27.6777 82.6486C32.1035 82.6486 35.6912 79.0609 35.6912 74.6351C35.6912 70.2094 32.1035 66.6216 27.6777 66.6216C23.252 66.6216 19.6642 70.2094 19.6642 74.6351C19.6642 79.0609 23.252 82.6486 27.6777 82.6486Z" stroke="#F90000" stroke-width="1.31585" stroke-miterlimit="10"/>
<path d="M46.876 82.6486C51.3017 82.6486 54.8895 79.0609 54.8895 74.6351C54.8895 70.2094 51.3017 66.6216 46.876 66.6216C42.4502 66.6216 38.8624 70.2094 38.8624 74.6351C38.8624 79.0609 42.4502 82.6486 46.876 82.6486Z" stroke="#F90000" stroke-width="1.31585" stroke-miterlimit="10"/>
<path d="M91.5754 82.6486C96.0012 82.6486 99.5889 79.0609 99.5889 74.6351C99.5889 70.2094 96.0012 66.6216 91.5754 66.6216C87.1497 66.6216 83.5619 70.2094 83.5619 74.6351C83.5619 79.0609 87.1497 82.6486 91.5754 82.6486Z" stroke="#F90000" stroke-width="1.31585" stroke-miterlimit="10"/>
</g>
<defs>
<clipPath id="clip0">
<rect width="107.511" height="82.359" fill="white" transform="translate(0.0843506 0.947266)"/>
</clipPath>
</defs>
</svg>
