<svg width="77" height="78" viewBox="0 0 77 78" fill="none" xmlns="http://www.w3.org/2000/svg">
<g clip-path="url(#clip0)">
<path d="M5.07015 0.000150952H59.1202C60.4647 0.0029551 61.7542 0.534564 62.7102 1.48015C63.1838 1.94961 63.5587 2.50907 63.8129 3.12561C64.0671 3.74215 64.1953 4.4033 64.1902 5.07015V18.4902C64.1919 18.6778 64.1243 18.8594 64.0002 19.0002L35.5602 47.4602L42.2402 54.1402L62.9002 33.4802C62.9677 33.4052 63.0502 33.3453 63.1423 33.3042C63.2345 33.2632 63.3343 33.242 63.4352 33.242C63.536 33.242 63.6358 33.2632 63.728 33.3042C63.8201 33.3453 63.9026 33.4052 63.9702 33.4802C64.0457 33.5473 64.1049 33.6309 64.143 33.7245C64.1812 33.8182 64.1973 33.9193 64.1902 34.0202V72.4102C64.1953 73.077 64.0671 73.7382 63.8129 74.3547C63.5587 74.9712 63.1838 75.5307 62.7102 76.0002C61.7579 76.9549 60.4686 77.4972 59.1202 77.5102H5.12015C4.44335 77.5142 3.7726 77.3826 3.14744 77.1233C2.52228 76.8639 1.95538 76.4821 1.48015 76.0002C1.00652 75.5307 0.631581 74.9712 0.37741 74.3547C0.123239 73.7382 -0.00503073 73.077 0.000150952 72.4102V5.07015C0.000793677 3.72514 0.532728 2.43484 1.48015 1.48015C1.94961 1.00652 2.50907 0.631581 3.12561 0.37741C3.74215 0.123239 4.4033 -0.00503073 5.07015 0.000150952ZM59.1202 1.51015H5.12015C4.18292 1.50758 3.28061 1.86564 2.60015 2.51015C1.95564 3.19061 1.59758 4.09292 1.60015 5.03015V72.4102C1.59739 73.3297 1.95661 74.2134 2.60015 74.8702C2.93324 75.1951 3.32746 75.4509 3.76001 75.6225C4.19256 75.7942 4.65486 75.8783 5.12015 75.8702H59.1202C60.0599 75.8728 60.9625 75.5027 61.6298 74.841C62.2971 74.1793 62.6749 73.2799 62.6802 72.3401V35.8402L42.7702 55.7502C42.6243 55.8844 42.4334 55.9589 42.2352 55.9589C42.0369 55.9589 41.846 55.8844 41.7002 55.7502L33.9202 48.0002C33.7859 47.8543 33.7114 47.6634 33.7114 47.4652C33.7114 47.2669 33.7859 47.076 33.9202 46.9302L62.6802 18.1702V5.07015C62.6827 4.13292 62.3247 3.23061 61.6802 2.55015C60.9986 1.90739 60.097 1.54962 59.1602 1.55015L59.1202 1.51015Z" fill="#F2F2F2"/>
<path d="M11.0902 16.0002C10.9878 16.0003 10.8865 15.9797 10.7922 15.9397C10.698 15.8996 10.6129 15.8409 10.5419 15.7671C10.4709 15.6934 10.4156 15.606 10.3792 15.5103C10.3428 15.4146 10.3261 15.3125 10.3302 15.2102C10.3288 15.1105 10.3476 15.0115 10.3854 14.9193C10.4232 14.827 10.4793 14.7433 10.5503 14.6732C10.6213 14.6032 10.7057 14.5482 10.7985 14.5116C10.8913 14.475 10.9905 14.4575 11.0902 14.4602H53.0902C53.1899 14.4575 53.2891 14.475 53.3819 14.5116C53.4746 14.5482 53.559 14.6032 53.63 14.6732C53.701 14.7433 53.7571 14.827 53.7949 14.9193C53.8328 15.0115 53.8516 15.1105 53.8502 15.2102C53.8542 15.3125 53.8376 15.4146 53.8012 15.5103C53.7648 15.606 53.7095 15.6934 53.6385 15.7671C53.5675 15.8409 53.4823 15.8996 53.3881 15.9397C53.2939 15.9797 53.1926 16.0003 53.0902 16.0002H11.0902Z" fill="#F2F2F2"/>
<path d="M11.0901 31.6502C10.9905 31.6529 10.8912 31.6354 10.7985 31.5988C10.7057 31.5622 10.6213 31.5072 10.5503 31.4372C10.4793 31.3671 10.4232 31.2835 10.3854 31.1912C10.3476 31.0989 10.3288 30.9999 10.3301 30.9002C10.3288 30.8 10.3475 30.7006 10.3853 30.6078C10.423 30.515 10.4789 30.4306 10.5498 30.3598C10.6206 30.289 10.7049 30.233 10.7977 30.1953C10.8905 30.1576 10.99 30.1389 11.0901 30.1402H48.3201C48.5192 30.1454 48.7084 30.2274 48.8483 30.3691C48.9881 30.5108 49.0676 30.7011 49.0701 30.9002C49.0676 31.0983 48.9877 31.2876 48.8476 31.4277C48.7075 31.5678 48.5183 31.6476 48.3201 31.6502H11.0901Z" fill="#F2F2F2"/>
<path d="M11.0902 47.3401C10.9878 47.3402 10.8865 47.3196 10.7922 47.2795C10.698 47.2394 10.6129 47.1808 10.5419 47.107C10.4709 47.0332 10.4156 46.9458 10.3792 46.8501C10.3428 46.7544 10.3261 46.6524 10.3302 46.5501C10.3288 46.4504 10.3476 46.3514 10.3854 46.2591C10.4232 46.1668 10.4793 46.0831 10.5503 46.0131C10.6213 45.943 10.7057 45.8881 10.7985 45.8515C10.8913 45.8148 10.9905 45.7974 11.0902 45.8001H35.3702C35.57 45.8001 35.7618 45.8788 35.9041 46.0191C36.0463 46.1595 36.1276 46.3503 36.1302 46.5501C36.1329 46.7553 36.0546 46.9532 35.9124 47.1011C35.7701 47.249 35.5753 47.3348 35.3702 47.3401H11.0902Z" fill="#F2F2F2"/>
<path d="M11.0901 63.0003C10.9905 63.003 10.8912 62.9855 10.7985 62.9489C10.7057 62.9123 10.6213 62.8573 10.5503 62.7873C10.4793 62.7172 10.4232 62.6336 10.3854 62.5413C10.3476 62.449 10.3288 62.35 10.3301 62.2503C10.3288 62.1501 10.3475 62.0507 10.3853 61.9579C10.423 61.8651 10.4789 61.7807 10.5498 61.7099C10.6206 61.6391 10.7049 61.5831 10.7977 61.5454C10.8905 61.5077 10.99 61.489 11.0901 61.4903H24.9101C25.1109 61.4929 25.3027 61.5738 25.4447 61.7158C25.5867 61.8577 25.6676 62.0495 25.6701 62.2503C25.6675 62.4501 25.5863 62.6409 25.444 62.7812C25.3018 62.9216 25.11 63.0003 24.9101 63.0003H11.0901Z" fill="#F2F2F2"/>
<path d="M75.0903 21.2899L68.4103 14.6099L35.5603 47.4599L42.2403 54.1399L75.0903 21.2899ZM68.9403 12.9999L76.6903 20.7699C76.8297 20.9152 76.9075 21.1086 76.9075 21.3099C76.9075 21.5112 76.8297 21.7047 76.6903 21.8499L42.7703 55.7499C42.6752 55.8413 42.5581 55.9068 42.4303 55.9399L36.7203 57.7899L31.0003 59.5899C30.9078 59.6212 30.8099 59.6339 30.7125 59.6271C30.615 59.6204 30.5198 59.5945 30.4324 59.5508C30.345 59.5071 30.2671 59.4465 30.2033 59.3725C30.1394 59.2986 30.0908 59.2127 30.0603 59.1199C30.015 58.9665 30.015 58.8033 30.0603 58.6499C31.2603 54.8299 32.4803 51.0499 33.7103 47.2799C33.741 47.1483 33.8066 47.0273 33.9003 46.9299L67.8703 12.9999C68.0139 12.8612 68.2057 12.7837 68.4053 12.7837C68.6049 12.7837 68.7968 12.8612 68.9403 12.9999ZM33.3203 53.4199L32.0003 57.6999L36.3103 56.3499L40.8203 54.8699C38.8203 52.8699 36.8203 50.8699 34.8203 48.8699L33.3203 53.4199Z" fill="#F2F2F2"/>
</g>
<defs>
<clipPath id="clip0">
<rect width="76.91" height="77.48" fill="white"/>
</clipPath>
</defs>
</svg>
