<svg width="103" height="57" viewBox="0 0 103 57" fill="none" xmlns="http://www.w3.org/2000/svg">
<g clip-path="url(#clip0)">
<path d="M19.4177 0L13.9375 30.4592V20.3702L17.6023 0H19.4177Z" fill="#F90000"/>
<path d="M103 0L93.1417 56.0448H77.4828L62.3792 24.7227L56.8136 56.0448H13.9375V46.2804L22.2667 0H66.6719L81.8567 31.715L87.418 0H103Z" fill="#F90000"/>
<path d="M48.6938 3.93394C45.6156 1.31131 41.1363 0 35.2561 0H22.2668L13.9376 46.2804L12.1778 56.0448H16.415L20.0756 35.3755H21.7414L29.2121 56.0448H46.5581L37.7975 34.171C42.0917 32.9551 45.5373 30.902 48.1343 28.0117C50.685 25.2024 52.3635 21.7119 52.9652 17.9654C53.1862 16.7853 53.2921 15.5866 53.2813 14.386C53.2927 10.0434 51.7635 6.55941 48.6938 3.93394ZM37.0031 18.8368C36.2541 22.7636 33.8166 24.7256 29.6905 24.7227H21.9806L23.9668 12.9551H31.6553C33.4578 12.9551 34.8232 13.3538 35.7515 14.1511C36.223 14.5647 36.5947 15.0797 36.8388 15.6574C37.0829 16.2352 37.1931 16.8607 37.1611 17.487C37.1405 17.9401 37.0877 18.3912 37.0031 18.8368ZM19.4178 0H17.6025L13.9376 20.3702L7.53055 56.0448H9.34589L13.9547 30.4592L19.4178 0ZM12.9381 0L2.84912 56.0448H4.66446L13.9376 4.54475L14.7535 0H12.9381Z" fill="#F2F2F2"/>
<path d="M10.6913 0L0.751762 56.0448H0L10.089 0H10.6913Z" fill="#F2F2F2"/>
</g>
<defs>
<clipPath id="clip0">
<rect width="103" height="56.0448" fill="white"/>
</clipPath>
</defs>
</svg>
