<svg width="109" height="105" viewBox="0 0 109 105" fill="none" xmlns="http://www.w3.org/2000/svg">
<g clip-path="url(#clip0)" filter="url(#filter0_d)">
<path d="M13.4701 81.7413L9.75491 74.8429H9.19785V81.7413H4V63.0399H12.1968C13.5135 63.002 14.8211 63.2701 16.0166 63.8231C16.9983 64.2898 17.819 65.0377 18.3747 65.9718C18.9115 66.9034 19.1864 67.9627 19.1705 69.0377C19.1914 70.2383 18.8242 71.4135 18.1234 72.3885C17.36 73.3947 16.2824 74.117 15.0617 74.4408L19.2794 81.7371L13.4701 81.7413ZM9.19785 71.2911H11.7696C12.3459 71.3363 12.9171 71.1544 13.3612 70.7843C13.5471 70.5923 13.6905 70.3632 13.7822 70.1121C13.8738 69.861 13.9116 69.5934 13.8931 69.3268C13.907 69.0651 13.8657 68.8035 13.7719 68.5589C13.6781 68.3143 13.5338 68.0921 13.3486 67.9069C12.9094 67.5361 12.3429 67.3513 11.7696 67.3917H9.19785V71.2911Z" fill="#F2F2F2"/>
<path d="M26.7306 63.04V81.7414H21.5327V63.04H26.7306Z" fill="#F2F2F2"/>
<path d="M30.2196 67.4337C30.965 66.0241 32.1026 64.8603 33.4949 64.083C34.9871 63.2588 36.6702 62.8427 38.3745 62.8767C40.4933 62.808 42.5716 63.4673 44.2634 64.7448C45.8666 66.0127 46.9583 67.8168 47.3377 69.8253H41.742C41.4458 69.1625 40.9625 68.6006 40.3514 68.2086C39.7337 67.829 39.0197 67.6356 38.2949 67.6515C37.7497 67.6271 37.2062 67.7285 36.7065 67.9479C36.2068 68.1672 35.7643 68.4986 35.4132 68.9164C34.7122 69.9292 34.3366 71.1317 34.3366 72.3635C34.3366 73.5953 34.7122 74.7978 35.4132 75.8106C35.7614 76.2324 36.2021 76.5683 36.7011 76.792C37.2002 77.0158 37.7442 77.1214 38.2907 77.1006C39.0152 77.1138 39.7284 76.9206 40.3472 76.5436C40.9573 76.1486 41.4402 75.5857 41.7378 74.9227H47.3335C46.9542 76.9291 45.8642 78.7314 44.2634 79.999C42.5724 81.2781 40.4935 81.9375 38.3745 81.8671C36.6702 81.9011 34.9871 81.485 33.4949 80.6608C32.1026 79.8835 30.965 78.7197 30.2196 77.3101C29.4592 75.7764 29.0636 74.0878 29.0636 72.3761C29.0636 70.6643 29.4592 68.9757 30.2196 67.4421V67.4337Z" fill="#F2F2F2"/>
<path d="M67.124 81.7414H61.9262L55.0027 71.2913V81.7414H49.8048V63.04H55.0027L61.9262 73.6242V63.04H67.124V81.7414Z" fill="#F2F2F2"/>
<path d="M74.2317 80.6945C72.7835 79.8881 71.5796 78.7059 70.747 77.2726C69.901 75.7612 69.4568 74.0581 69.4568 72.326C69.4568 70.594 69.901 68.8909 70.747 67.3795C71.5749 65.9457 72.7802 64.7665 74.2317 63.9701C75.7172 63.1702 77.378 62.7515 79.0652 62.7515C80.7524 62.7515 82.4132 63.1702 83.8987 63.9701C85.3442 64.7673 86.5425 65.9468 87.3625 67.3795C88.1977 68.8944 88.6358 70.5961 88.6358 72.326C88.6358 74.0559 88.1977 75.7577 87.3625 77.2726C86.5358 78.7077 85.334 79.8906 83.8861 80.6945C82.408 81.4988 80.7521 81.9202 79.0694 81.9202C77.3867 81.9202 75.7307 81.4988 74.2527 80.6945H74.2317ZM82.1898 75.7983C82.9977 74.8272 83.4105 73.5876 83.3458 72.326C83.3458 70.8391 82.9604 69.6706 82.1898 68.8119C81.3491 67.9932 80.2219 67.5351 79.0484 67.5351C77.8749 67.5351 76.7478 67.9932 75.9071 68.8119C75.149 69.6706 74.7679 70.8391 74.7679 72.326C74.6994 73.5891 75.1058 74.8321 75.9071 75.8108C76.7442 76.6365 77.8727 77.0994 79.0484 77.0994C80.2242 77.0994 81.3527 76.6365 82.1898 75.8108V75.7983Z" fill="#F2F2F2"/>
<path d="M92.6651 80.3762C91.9727 79.859 91.4091 79.1888 91.0183 78.418C90.6274 77.6472 90.4198 76.7965 90.4117 75.9323H95.953C95.9584 76.4671 96.1682 76.9796 96.5394 77.3647C96.889 77.6423 97.318 77.801 97.7641 77.8175C98.2101 77.8341 98.6498 77.7077 99.019 77.4569C99.1709 77.3413 99.2926 77.1906 99.3736 77.0177C99.4545 76.8448 99.4924 76.6549 99.4839 76.4642C99.4842 76.204 99.4123 75.9488 99.2762 75.727C99.1402 75.5051 98.9453 75.3254 98.7132 75.2077C97.918 74.7894 97.0832 74.4513 96.2211 74.1983C95.2084 73.8758 94.2202 73.4811 93.2641 73.0171C92.4893 72.617 91.8171 72.0437 91.2997 71.3417C90.7091 70.502 90.4144 69.4898 90.462 68.4643C90.4301 67.3649 90.7451 66.2834 91.3625 65.3732C91.989 64.4982 92.8542 63.8221 93.8546 63.4256C95.0014 62.9696 96.2269 62.7447 97.4609 62.7638C99.6389 62.7638 101.373 63.2706 102.675 64.2884C103.324 64.7988 103.849 65.4486 104.211 66.1897C104.574 66.9308 104.765 67.744 104.77 68.569H99.1111C99.1193 68.335 99.0776 68.1019 98.9888 67.8853C98.9 67.6686 98.7661 67.4734 98.596 67.3125C98.2427 67.0234 97.7955 66.8743 97.3394 66.8936C96.9879 66.8801 96.645 67.0049 96.3845 67.2413C96.2554 67.3681 96.1553 67.5214 96.091 67.6906C96.0266 67.8597 95.9996 68.0408 96.0117 68.2214C96.0123 68.3946 96.0501 68.5657 96.1223 68.7232C96.1945 68.8807 96.2996 69.0209 96.4305 69.1344C96.7333 69.4098 97.0783 69.6346 97.4525 69.8004C97.8714 69.9847 98.4619 70.2192 99.2577 70.4999C100.262 70.8342 101.242 71.2387 102.19 71.7103C102.967 72.1169 103.646 72.6887 104.179 73.3857C104.759 74.1722 105.054 75.132 105.017 76.1082C105.032 77.1663 104.741 78.2062 104.179 79.1029C103.59 80.0158 102.753 80.7421 101.767 81.1971C100.6 81.7367 99.3241 82.0004 98.0389 81.9678C95.8553 81.9399 94.0641 81.4093 92.6651 80.3762Z" fill="#F2F2F2"/>
<path d="M5.13498 95.9152H8.03756V96.799H4.05017V88.4766H5.13498V95.9152Z" fill="#F2F2F2"/>
<path d="M16.2554 96.334C15.625 95.9774 15.1048 95.4543 14.7517 94.822C14.3903 94.1507 14.201 93.4002 14.201 92.6377C14.201 91.8753 14.3903 91.1248 14.7517 90.4535C15.1048 89.8211 15.625 89.298 16.2554 88.9414C16.9024 88.5843 17.6294 88.397 18.3684 88.397C19.1075 88.397 19.8345 88.5843 20.4815 88.9414C21.1084 89.2974 21.6268 89.8171 21.981 90.4451C22.3386 91.1206 22.5255 91.8734 22.5255 92.6377C22.5255 93.4021 22.3386 94.1548 21.981 94.8304C21.6268 95.4583 21.1084 95.9781 20.4815 96.334C19.8336 96.6885 19.107 96.8743 18.3684 96.8743C17.6299 96.8743 16.9033 96.6885 16.2554 96.334ZM19.9161 95.4963C20.3826 95.2223 20.7617 94.8214 21.0093 94.3403C21.2712 93.7976 21.4072 93.2027 21.4072 92.6C21.4072 91.9974 21.2712 91.4025 21.0093 90.8597C20.7606 90.3829 20.3834 89.9854 19.9203 89.7121C19.4397 89.4455 18.8992 89.3056 18.3496 89.3056C17.8 89.3056 17.2595 89.4455 16.7789 89.7121C16.3158 89.9854 15.9386 90.3829 15.6899 90.8597C15.428 91.4025 15.292 91.9974 15.292 92.6C15.292 93.2027 15.428 93.7976 15.6899 94.3403C15.9413 94.8242 16.3266 95.2255 16.7999 95.4963C17.2767 95.7604 17.8129 95.8989 18.358 95.8989C18.9031 95.8989 19.4392 95.7604 19.9161 95.4963Z" fill="#F2F2F2"/>
<path d="M35.6478 90.8891C35.4343 90.4242 35.0873 90.0335 34.6509 89.7666C34.1922 89.4863 33.6638 89.3411 33.1263 89.3477C32.5774 89.3444 32.0377 89.4891 31.564 89.7666C31.0989 90.0287 30.7182 90.4181 30.4667 90.8891C30.2048 91.4237 30.0686 92.0111 30.0686 92.6063C30.0686 93.2016 30.2048 93.789 30.4667 94.3236C30.7176 94.7982 31.0982 95.1918 31.564 95.4587C32.0377 95.736 32.5774 95.8807 33.1263 95.8775C33.8618 95.9043 34.5787 95.6428 35.1242 95.1487C35.6642 94.6312 35.9914 93.9306 36.0415 93.1843H32.7326V92.3048H37.1975V93.1425C37.1367 93.8094 36.9154 94.4518 36.5525 95.0147C36.1932 95.5782 35.6976 96.0421 35.1116 96.3634C34.5029 96.6949 33.8194 96.8651 33.1263 96.8576C32.3924 96.864 31.6699 96.6762 31.0321 96.3131C30.404 95.9572 29.8843 95.4375 29.5284 94.8095C29.1655 94.1394 28.9755 93.3893 28.9755 92.6273C28.9755 91.8652 29.1655 91.1152 29.5284 90.4451C29.8816 89.8128 30.4017 89.2897 31.0321 88.9331C31.7168 88.5576 32.4887 88.3702 33.2693 88.3901C34.0499 88.41 34.8113 88.6363 35.476 89.0462C36.1552 89.4855 36.675 90.1316 36.9587 90.8891H35.6478Z" fill="#F2F2F2"/>
<path d="M45.1178 88.4766V96.778H44.0372V88.4766H45.1178Z" fill="#F2F2F2"/>
<path d="M53.5366 96.5687C53.1324 96.3932 52.7813 96.1144 52.5188 95.7603C52.2721 95.4095 52.1391 94.9914 52.1377 94.5624H53.2937C53.3241 94.9384 53.4963 95.2888 53.7754 95.5425C54.115 95.8382 54.5573 95.9886 55.0068 95.9614C55.4472 95.9863 55.8813 95.8476 56.2256 95.5719C56.3692 95.4502 56.4837 95.2979 56.5605 95.126C56.6374 94.9542 56.6747 94.7673 56.6696 94.5792C56.6818 94.2977 56.5893 94.0216 56.4099 93.8043C56.2302 93.6049 56.0065 93.45 55.7565 93.352C55.4046 93.2099 55.0452 93.0869 54.6801 92.9834C54.2318 92.877 53.7922 92.737 53.3649 92.5646C53.0317 92.4165 52.743 92.1841 52.5272 91.8902C52.2757 91.5306 52.1518 91.0971 52.1754 90.6588C52.1684 90.2324 52.2895 89.8136 52.523 89.4567C52.7619 89.1006 53.0976 88.8201 53.4906 88.6484C53.943 88.4501 54.4333 88.3529 54.9272 88.3636C55.6116 88.3344 56.2854 88.5398 56.8371 88.9458C57.0774 89.1301 57.2762 89.363 57.4206 89.6293C57.5649 89.8956 57.6515 90.1893 57.6748 90.4913H56.4853C56.4324 90.1576 56.2522 89.8574 55.9827 89.6536C55.6503 89.3975 55.2374 89.2682 54.8183 89.2892C54.4196 89.271 54.0275 89.3958 53.7125 89.641C53.5715 89.7616 53.4603 89.9133 53.3876 90.084C53.3149 90.2548 53.2828 90.4401 53.2937 90.6253C53.282 90.8946 53.3734 91.1582 53.5492 91.3625C53.724 91.5481 53.9389 91.6913 54.1775 91.7813C54.4288 91.8763 54.7806 91.9894 55.233 92.1206C55.6824 92.2383 56.1232 92.3866 56.5523 92.5646C56.8838 92.7173 57.1718 92.9505 57.39 93.2431C57.6497 93.6087 57.7768 94.052 57.7502 94.4996C57.7503 94.9032 57.6387 95.299 57.4277 95.6431C57.1984 96.0166 56.869 96.3184 56.4769 96.5143C56.0158 96.7444 55.5052 96.858 54.99 96.8451C54.4916 96.8555 53.9965 96.7614 53.5366 96.5687Z" fill="#F2F2F2"/>
<path d="M69.8757 88.4766V89.3603H67.6181V96.778H66.5333V89.3603H64.2632V88.4766H69.8757Z" fill="#F2F2F2"/>
<path d="M77.7166 88.4766V96.778H76.636V88.4766H77.7166Z" fill="#F2F2F2"/>
<path d="M85.1049 90.4369C85.4554 89.8046 85.9707 89.2792 86.596 88.9165C87.2333 88.5521 87.9561 88.3641 88.6902 88.372C89.526 88.3528 90.3491 88.58 91.0567 89.0254C91.7348 89.4693 92.2518 90.1199 92.531 90.8808H91.2451C91.0361 90.4055 90.6888 90.0041 90.2483 89.729C89.7828 89.4433 89.2447 89.2978 88.6986 89.3102C88.1506 89.3044 87.6117 89.4493 87.1405 89.729C86.6776 90.0013 86.3015 90.3992 86.0557 90.8767C85.7965 91.4194 85.6619 92.0133 85.6619 92.6149C85.6619 93.2164 85.7965 93.8103 86.0557 94.3531C86.301 94.8297 86.6774 95.2264 87.1405 95.4965C87.6117 95.7762 88.1506 95.9211 88.6986 95.9153C89.242 95.929 89.7786 95.7912 90.2483 95.5174C90.6896 95.2434 91.0373 94.8417 91.2451 94.3656H92.5394C92.26 95.1231 91.7427 95.7697 91.065 96.2085C90.3562 96.6506 89.5338 96.8762 88.6986 96.8577C87.9645 96.8656 87.2416 96.6776 86.6044 96.3132C85.9799 95.9569 85.4643 95.4371 85.1133 94.8096C84.7525 94.1388 84.5637 93.3891 84.5637 92.6274C84.5637 91.8658 84.7525 91.116 85.1133 90.4452L85.1049 90.4369Z" fill="#F2F2F2"/>
<path d="M100.719 96.5686C100.315 96.3931 99.9641 96.1143 99.7016 95.7603C99.4549 95.4094 99.3218 94.9913 99.3204 94.5624H100.476C100.508 94.9379 100.68 95.2877 100.958 95.5425C101.298 95.8382 101.74 95.9886 102.19 95.9613C102.63 95.9862 103.064 95.8475 103.408 95.5718C103.552 95.4502 103.666 95.2978 103.743 95.126C103.82 94.9542 103.857 94.7673 103.852 94.5791C103.867 94.2973 103.774 94.0206 103.593 93.8043C103.413 93.6048 103.189 93.45 102.939 93.3519C102.592 93.2218 102.238 93.1099 101.88 93.0169C101.431 92.9098 100.992 92.7698 100.564 92.598C100.232 92.4482 99.944 92.2161 99.7267 91.9237C99.4784 91.5627 99.3562 91.1298 99.3791 90.6923C99.3706 90.2662 99.4902 89.8475 99.7225 89.4902C99.962 89.1329 100.299 88.8522 100.694 88.6818C101.145 88.4827 101.634 88.3855 102.127 88.397C102.811 88.3679 103.485 88.5733 104.037 88.9792C104.277 89.1636 104.476 89.3965 104.62 89.6628C104.764 89.929 104.851 90.2227 104.874 90.5247H103.685C103.634 90.1914 103.455 89.8909 103.186 89.687C102.852 89.4306 102.438 89.3014 102.018 89.3226C101.619 89.3045 101.227 89.4292 100.912 89.6745C100.771 89.7951 100.66 89.9467 100.587 90.1175C100.514 90.2882 100.482 90.4735 100.493 90.6588C100.482 90.928 100.573 91.1916 100.749 91.3959C100.924 91.5805 101.139 91.7236 101.377 91.8148C101.628 91.9097 101.98 92.0228 102.432 92.154C102.882 92.2711 103.323 92.4194 103.752 92.598C104.083 92.751 104.371 92.9842 104.589 93.2765C104.846 93.6435 104.971 94.0861 104.946 94.5331C104.946 94.9367 104.834 95.3324 104.623 95.6765C104.394 96.05 104.064 96.3518 103.672 96.5477C103.211 96.7783 102.701 96.892 102.185 96.8786C101.68 96.8802 101.181 96.7745 100.719 96.5686Z" fill="#F2F2F2"/>
<path d="M18.4669 0L17.6669 4.4565V0H18.4669Z" fill="#F90000"/>
<path d="M23.0406 0L17.6669 29.8678V19.9747L21.2605 0H23.0406Z" fill="#F90000"/>
<path d="M105 0L95.3331 54.9565H79.9783L65.1679 24.2427L59.7104 54.9565H17.6669V45.3817L25.8343 0H69.3773L84.2672 31.0992L89.7206 0H105Z" fill="#F90000"/>
<path d="M51.7482 3.85755C48.7297 1.28585 44.3375 0 38.5714 0H25.8343L17.6669 45.3817L15.9413 54.9565H20.0962L23.6857 34.6886H25.3192L32.6447 54.9565H49.654L41.0635 33.5075C45.2743 32.3152 48.653 30.302 51.1995 27.4678C53.7007 24.7131 55.3466 21.2903 55.9366 17.6166C56.1534 16.4594 56.2572 15.2839 56.2466 14.1067C56.2578 9.84841 54.7583 6.43204 51.7482 3.85755ZM40.2845 18.471C39.5501 22.3216 37.1599 24.2455 33.1138 24.2427H25.5537L27.5013 12.7035H35.0405C36.8081 12.7035 38.147 13.0945 39.0572 13.8763C39.5195 14.2819 39.884 14.7869 40.1234 15.3534C40.3627 15.9199 40.4708 16.5333 40.4394 17.1475C40.4192 17.5918 40.3674 18.0341 40.2845 18.471ZM23.0407 0H21.2606L17.6669 19.9747L11.3842 54.9565H13.1643L17.6836 29.8678L23.0407 0ZM16.6868 0L6.7937 54.9565H8.57379L17.6669 4.4565L18.4669 0H16.6868Z" fill="#F2F2F2"/>
<path d="M14.4837 0L4.73717 54.9565H4L13.8931 0H14.4837Z" fill="#F2F2F2"/>
</g>
<defs>
<filter id="filter0_d" x="0" y="0" width="109" height="104.858" filterUnits="userSpaceOnUse" color-interpolation-filters="sRGB">
<feFlood flood-opacity="0" result="BackgroundImageFix"/>
<feColorMatrix in="SourceAlpha" type="matrix" values="0 0 0 0 0 0 0 0 0 0 0 0 0 0 0 0 0 0 127 0"/>
<feOffset dy="4"/>
<feGaussianBlur stdDeviation="2"/>
<feColorMatrix type="matrix" values="0 0 0 0 0 0 0 0 0 0 0 0 0 0 0 0 0 0 0.25 0"/>
<feBlend mode="normal" in2="BackgroundImageFix" result="effect1_dropShadow"/>
<feBlend mode="normal" in="SourceGraphic" in2="effect1_dropShadow" result="shape"/>
</filter>
<clipPath id="clip0">
<rect width="101" height="96.8576" fill="white" transform="translate(4)"/>
</clipPath>
</defs>
</svg>
